<svg width="30" height="29" viewBox="0 0 30 29" fill="none" xmlns="http://www.w3.org/2000/svg">
<path d="M15 0C15.799 0 16.5074 0.519569 16.7543 1.28709L19.4452 9.6536H28.1554C28.9544 9.6536 29.6628 10.1741 29.9097 10.9416C30.1564 11.709 29.8859 12.5493 29.2397 13.0237L22.1928 18.1948L24.8846 26.5622C25.1313 27.3296 24.8609 28.1699 24.2146 28.6443C23.5682 29.1186 22.6933 29.1186 22.0469 28.6443L15 23.4732L7.9531 28.6443C7.30668 29.1186 6.43184 29.1186 5.78544 28.6443C5.13914 28.1699 4.86867 27.3296 5.11543 26.5622L7.80631 18.1948L0.760305 13.0237C0.114076 12.5493 -0.156437 11.709 0.0902862 10.9416C0.337197 10.1741 1.04556 9.6536 1.84458 9.6536H10.5548L13.2457 1.28709L13.2979 1.1461C13.5822 0.456732 14.251 0 15 0ZM11.894 11.5165H1.84458L9.97486 17.4834L6.86972 27.138L15 21.171L23.1303 27.138L20.0251 17.4834L28.1554 11.5165H18.106L15 1.86286L11.894 11.5165Z" fill="#202020"/>
</svg>
