<svg width="30" height="30" viewBox="0 0 30 30" fill="none" xmlns="http://www.w3.org/2000/svg">
<path d="M14.2843 29.9944C11.8332 29.9944 9.38223 29.9962 6.93213 29.9935C5.89481 29.9925 4.87585 29.8715 3.92665 29.4166C1.64087 28.3207 0.320811 26.5277 0.0536775 23.9883C0.0142042 23.6132 0.00135242 23.2344 0.00135242 22.8566C-0.000483543 17.9831 -0.00140153 13.1106 0.00502436 8.23804C0.00869629 5.06946 1.89974 2.50342 4.8584 1.68262C5.40277 1.53129 5.98202 1.45334 6.5475 1.446C8.73413 1.41849 10.9226 1.43133 13.1092 1.43316C13.6766 1.43316 14.0612 1.74223 14.1989 2.28882C14.3045 2.70977 14.0915 3.216 13.6683 3.40676C13.4498 3.50581 13.1827 3.53149 12.9376 3.5324C10.8648 3.53974 8.79196 3.52874 6.71916 3.5324C4.75192 3.53516 3.12617 4.57606 2.45879 6.3158C2.27061 6.80645 2.1577 7.35854 2.15586 7.88404C2.13566 13.0666 2.14393 18.2482 2.14943 23.4307C2.15219 25.8913 4.08822 27.8392 6.553 27.8419C11.6836 27.8493 16.8142 27.8474 21.9448 27.8374C24.4601 27.8319 26.3732 25.905 26.3815 23.3885C26.3888 21.2563 26.3815 19.1231 26.3888 16.9908C26.3888 16.7891 26.4163 16.5754 26.4861 16.3874C26.6587 15.9242 27.1728 15.6546 27.6547 15.7427C28.144 15.8325 28.5378 16.2645 28.5396 16.7863C28.5488 19.102 28.6158 21.4213 28.5222 23.7333C28.3928 26.9294 26.0326 29.4533 22.8702 29.9265C22.4754 29.9852 22.0706 29.9953 21.6713 29.9962C19.2092 30.0026 16.7463 29.999 14.2843 29.999V29.9944Z" fill="#202020"/>
<path d="M29.9999 4.7217C29.9629 5.98949 29.5668 7.12153 28.6713 8.02734C24.5926 12.151 20.5008 16.2622 16.4212 20.3858C16.0057 20.8054 15.479 20.769 14.9779 20.8294C13.2443 21.0361 11.5071 21.2153 9.77348 21.4202C9.04916 21.5054 8.48099 20.927 8.58333 20.164C8.84359 18.2246 9.09592 16.2835 9.38794 14.3494C9.43029 14.0708 9.63144 13.7781 9.837 13.5687C12.3479 11.0171 14.8729 8.47981 17.3944 5.93892C18.8889 4.43337 20.3772 2.92161 21.8788 1.42405C23.5357 -0.227884 26.2001 -0.471858 28.0237 0.845607C29.2421 1.72569 29.9991 3.20995 29.9999 4.7217ZM20.7443 5.49355C20.7063 5.52726 20.6454 5.5734 20.5916 5.62752C17.5726 8.66789 14.5526 11.7065 11.5406 14.754C11.4215 14.8746 11.3474 15.0733 11.3183 15.2463C11.2204 15.8345 11.1516 16.4281 11.0739 17.0189C10.9804 17.7287 10.8886 18.4384 10.7925 19.1766C10.9054 19.1837 10.9901 19.2014 11.073 19.1925C12.2729 19.0612 13.4719 18.921 14.6726 18.7951C15.0035 18.7605 15.2567 18.6336 15.4966 18.3905C18.4142 15.4362 21.3415 12.4925 24.2662 9.54531C24.358 9.45216 24.4462 9.35545 24.515 9.28182C23.2534 8.01492 22.0103 6.76488 20.7443 5.49355ZM25.9866 7.69554C26.4577 7.24751 26.9491 6.83231 27.377 6.35944C27.7643 5.93182 27.9267 5.38798 27.9452 4.80155C27.9955 3.19309 26.5733 1.82949 24.9923 1.99096C23.7033 2.12226 23.0963 3.19664 22.2741 3.92945C23.5472 5.22119 24.7788 6.47123 25.9857 7.69642L25.9866 7.69554Z" fill="#202020"/>
</svg>
