<svg width="30" height="30" viewBox="0 0 30 30" fill="none" xmlns="http://www.w3.org/2000/svg">
<path d="M14 7V15.5L20.5 20.5" stroke="#202020" stroke-width="2" stroke-linecap="round" stroke-linejoin="round"/>
<path d="M15 29C7.5 29 1 23 1 15" stroke="#202020" stroke-width="2" stroke-linecap="round"/>
<path d="M15 29C22.5 29 29 23 29 15" stroke="#202020" stroke-width="2" stroke-linecap="round"/>
<path d="M15 1C22.5 1 29 7 29 15" stroke="#202020" stroke-width="2" stroke-linecap="round"/>
<path d="M2.75193 10.469C2.75193 11.0213 2.30422 11.469 1.75193 11.469C1.19965 11.469 0.751933 11.0213 0.751933 10.469C0.751933 9.91671 1.19965 9.46899 1.75193 9.46899C2.30422 9.46899 2.75193 9.91671 2.75193 10.469Z" fill="#202020"/>
<path d="M4.84265 6.52972C4.84265 7.08201 4.39494 7.52972 3.84265 7.52972C3.29037 7.52972 2.84265 7.08201 2.84265 6.52972C2.84265 5.97744 3.29037 5.52972 3.84265 5.52972C4.39494 5.52972 4.84265 5.97744 4.84265 6.52972Z" fill="#202020"/>
<path d="M7.8836 3.96399C7.63353 4.45642 7.03162 4.65289 6.53919 4.40283C6.04676 4.15276 5.85029 3.55085 6.10036 3.05842C6.35042 2.56599 6.95233 2.36952 7.44476 2.61958C7.93719 2.86965 8.13366 3.47156 7.8836 3.96399Z" fill="#202020"/>
<path d="M11.6619 2.10264C11.4119 2.59506 10.81 2.79154 10.3175 2.54147C9.8251 2.2914 9.62863 1.68949 9.87869 1.19707C10.1288 0.704637 10.7307 0.508164 11.2231 0.75823C11.7155 1.0083 11.912 1.61021 11.6619 2.10264Z" fill="#202020"/>
</svg>
