<svg width="30" height="30" viewBox="0 0 30 30" fill="none" xmlns="http://www.w3.org/2000/svg">
<path d="M0.00942016 11.9864C-0.0689684 10.9119 0.338915 9.9904 1.34145 9.54403C2.64657 8.96409 4.00225 8.489 5.34343 7.98792C8.9515 6.64171 12.5639 5.30779 16.1729 3.96576C19.566 2.7043 22.9542 1.43316 26.3499 0.177581C27.2852 -0.167861 28.1801 -0.0165805 28.9134 0.695189C29.6519 1.41224 29.8123 2.287 29.4587 3.24071C28.3771 6.16321 27.3006 9.08915 26.219 12.0116L21.9132 23.604C21.3655 25.0727 20.8156 26.5407 20.2615 28.0067L20.2086 28.1314C20.0759 28.4176 19.8765 28.6771 19.7145 28.9515L19.7152 28.9535L19.5792 29.0758C18.193 30.2347 16.2015 29.6492 15.5584 27.9134L15.4988 27.7354C14.8214 25.5095 14.1109 23.293 13.4137 21.0728L12.7227 18.8511C12.3942 17.7817 11.6985 17.1933 10.6483 16.8708C9.16105 16.4142 7.67815 15.9437 6.19574 15.4717L1.74581 14.0618C0.703213 13.7352 0.0876485 13.0492 0.00942016 11.9864ZM2.02854 11.4727C2.00645 11.5155 1.95867 11.6411 1.97685 11.8931L1.97821 11.8931C1.98489 11.9839 2.00047 12.0287 2.00538 12.0414C2.00929 12.0514 2.00895 12.0484 2.00472 12.0434C1.99288 12.0296 2.04417 12.1017 2.2893 12.1787L6.7495 13.5922C8.22251 14.0612 9.69104 14.527 11.1822 14.9848C11.9141 15.2096 12.6481 15.5656 13.2779 16.1498C13.9201 16.7454 14.3529 17.4843 14.6087 18.3172C15.2667 20.4596 16.0022 22.7541 16.7022 24.9935L17.3862 27.207C17.4859 27.535 17.672 27.6496 17.7946 27.6853C17.8868 27.7121 18.0264 27.7186 18.1936 27.6149C18.1943 27.6139 18.1957 27.6133 18.1963 27.6122C18.2566 27.5195 18.2928 27.4657 18.3326 27.4028C18.3879 27.3151 18.4078 27.2758 18.4126 27.2662C19.5184 24.3402 20.6066 21.4061 21.6996 18.4659C22.5897 16.0714 23.4792 13.6789 24.3654 11.284C24.9059 9.82368 25.445 8.36215 25.9847 6.89986C26.5241 5.438 27.064 3.97519 27.6052 2.51304L27.6052 2.51168C27.6441 2.40673 27.6584 2.33333 27.6629 2.28961C27.6668 2.25073 27.6635 2.23256 27.6628 2.22896C27.6626 2.2283 27.6625 2.22274 27.6543 2.20841C27.6452 2.19242 27.6191 2.15255 27.5581 2.09334C27.4494 1.98793 27.3924 1.97989 27.3821 1.9779C27.3668 1.97498 27.311 1.96665 27.2031 1.99258L27.0769 2.0318C23.6817 3.28719 20.3055 4.55451 16.9033 5.81934C13.2873 7.16399 9.68465 8.49257 6.07652 9.83881C4.68469 10.3588 3.41757 10.8031 2.18232 11.352C2.11455 11.3824 2.08037 11.4094 2.06537 11.4234C2.05067 11.4372 2.03931 11.4519 2.02854 11.4727Z" fill="#202020"/>
</svg>
