<svg width="30" height="31" viewBox="0 0 30 31" fill="none" xmlns="http://www.w3.org/2000/svg">
<path d="M0.695884 19.8469C0.771463 19.8848 0.884831 19.8848 0.96041 19.8848C1.18715 19.8848 1.41388 19.7712 1.56504 19.5819C1.60283 19.544 4.28588 15.8334 6.66662 17.1207L12.8641 23.3304C14.1867 25.7158 10.4456 28.4041 10.4078 28.442C10.1432 28.6313 10.0299 29.0099 10.1432 29.3128C10.2566 29.6158 10.5211 29.8051 10.8612 29.8051C10.899 29.8051 10.899 29.8051 10.9368 29.8051C14.489 29.4264 17.1721 28.1769 18.8348 26.0187C20.6865 23.6333 20.7999 20.9071 20.7243 19.8469C24.9945 16.6664 27.1863 12.88 28.32 9.81302C30.1339 5.04219 29.7938 1.0665 29.756 0.915046C29.7182 0.536408 29.4537 0.271362 29.0758 0.233499C28.9246 0.233499 24.9567 -0.145139 20.1575 1.63446C17.0965 2.77037 13.3176 5.00433 10.1432 9.24507C9.08514 9.2072 6.3643 9.28293 3.98357 11.1383C1.82957 12.8043 0.582516 15.4926 0.204621 19.0518C0.166832 19.4304 0.393568 19.7333 0.695884 19.8469ZM17.6634 25.11C16.643 26.3973 15.1315 27.3439 13.2042 27.874C14.1867 26.7002 15.0559 25.0342 14.489 23.2925C16.2651 22.5731 17.8145 21.778 19.2127 20.9071C19.1371 22.043 18.797 23.6711 17.6634 25.11ZM28.2822 1.71018C28.2822 2.88396 28.2066 5.49656 27.1863 8.52566L21.4801 2.77037C24.5032 1.78591 27.1107 1.67232 28.2822 1.71018ZM11.088 10.5324C11.1258 10.4946 11.1636 10.4567 11.1636 10.4188C13.4309 7.20043 16.3785 4.85287 19.9307 3.37619L26.6195 10.0781C25.1457 13.6373 22.7649 16.5528 19.5906 18.8625C19.5528 18.9003 19.515 18.9382 19.4772 18.9382C17.7767 20.1498 15.8495 21.1721 13.6955 22.0051L8.02704 16.3256C8.85841 14.1674 9.87872 12.2363 11.088 10.5324ZM4.89051 12.3499C6.32651 11.214 7.98925 10.8732 9.08514 10.7975C8.21599 12.1984 7.38462 13.7508 6.70441 15.5304C4.96609 14.9625 3.34115 15.8334 2.13188 16.8178C2.69872 14.8868 3.60567 13.3722 4.89051 12.3499Z" fill="black"/>
<path d="M28.2945 0.00246074C28.531 0.00635189 28.7193 0.0138017 28.8534 0.0207713C28.9203 0.0242489 28.9738 0.0280667 29.0124 0.0304085C29.0319 0.0315923 29.0473 0.0317131 29.0587 0.0323359C29.0677 0.0328295 29.0719 0.033246 29.0731 0.0332996H29.0828L29.0924 0.0342633C29.564 0.0815186 29.903 0.421086 29.9501 0.892933C29.9537 0.914638 29.9572 0.940159 29.9597 0.964248C29.9642 1.00569 29.9694 1.06121 29.9742 1.12904C29.9838 1.26515 29.9928 1.45475 29.9973 1.69185C30.0063 2.16676 29.9951 2.83438 29.926 3.64627C29.7878 5.26914 29.4157 7.47285 28.5017 9.87764L28.5026 9.87861C27.3659 12.9538 25.1741 16.7427 20.9241 19.9369C20.986 21.0897 20.8222 23.7742 18.989 26.1365C17.2827 28.3512 14.5402 29.6168 10.9547 29.999L10.945 30H10.8583C10.436 29.9999 10.0975 29.7592 9.9553 29.3794C9.81476 29.0036 9.94687 28.5469 10.2656 28.3C10.2723 28.2933 10.2783 28.288 10.2801 28.2865C10.2825 28.2845 10.2851 28.2821 10.2868 28.2807C10.2903 28.2779 10.2952 28.2753 10.2993 28.2721C10.3076 28.2657 10.3193 28.2556 10.3331 28.2451C10.3617 28.2231 10.4029 28.1916 10.4535 28.1516C10.5547 28.0715 10.6957 27.9559 10.8602 27.8114C11.1901 27.5216 11.6111 27.1166 11.9887 26.6415C12.7519 25.681 13.2791 24.5162 12.6989 23.4438L6.54766 17.2809C5.47769 16.718 4.31507 17.2469 3.35686 18.0066C2.88261 18.3826 2.47811 18.8007 2.18886 19.1283C2.04447 19.2919 1.92961 19.4326 1.84964 19.5331C1.80972 19.5833 1.77808 19.6232 1.75616 19.6516C1.74556 19.6654 1.73642 19.6782 1.73014 19.6863C1.72694 19.6905 1.72326 19.6944 1.7205 19.6979C1.71946 19.6992 1.71712 19.7 1.71568 19.7017C1.53012 19.9341 1.24936 20.0794 0.958216 20.0795C0.921553 20.0795 0.864407 20.0796 0.805952 20.0737C0.754491 20.0686 0.688004 20.0559 0.623813 20.0275V20.0294C0.618213 20.0273 0.612989 20.0239 0.60743 20.0217L0.604539 20.0207C0.235688 19.8727 -0.0414732 19.4959 0.00511886 19.0291L0.00608256 19.0281C0.387525 15.4359 1.64955 12.6888 3.85991 10.9792C6.21988 9.14034 8.90157 9.01422 10.043 9.04307C13.2309 4.81969 17.0155 2.58677 20.0867 1.44707C22.5066 0.549764 24.7165 0.195936 26.3411 0.0670296C27.1536 0.00257024 27.8209 -0.00531874 28.2945 0.00246074ZM29.0731 0.230861C28.922 0.230861 24.9543 -0.147432 20.1551 1.6321L19.573 1.85761C16.624 3.05451 13.1163 5.26674 10.1403 9.24255L9.67004 9.23677C8.40801 9.25123 6.06452 9.51206 3.98134 11.1353L3.78185 11.2953C1.75011 12.971 0.567792 15.6014 0.201713 19.0493L0.199786 19.1871C0.221914 19.5004 0.428609 19.745 0.693199 19.8444C0.730907 19.8633 0.778092 19.8724 0.825226 19.8771L0.958216 19.882C1.18478 19.8818 1.4114 19.7685 1.56245 19.5794C1.60024 19.5415 4.28354 15.8307 6.66427 17.118L12.8618 23.3282C14.1836 25.7135 10.4431 28.4019 10.4053 28.4397C10.1409 28.629 10.0272 29.0071 10.1403 29.31C10.2537 29.6128 10.5183 29.8023 10.8583 29.8024H10.9344C14.4865 29.4238 17.1692 28.1741 18.8319 26.016C20.6835 23.6307 20.7973 20.9046 20.7217 19.8444C24.9919 16.6638 27.1839 12.8771 28.3176 9.81018C30.1314 5.03947 29.7913 1.06366 29.7535 0.912207C29.7157 0.533676 29.451 0.268724 29.0731 0.230861ZM19.2097 20.9045C19.1341 22.0403 18.7946 23.6685 17.661 25.1072L17.4635 25.3443C16.4497 26.511 15.0087 27.3742 13.202 27.8712C14.1844 26.6974 15.0534 25.0312 14.4866 23.2897C16.2625 22.5703 17.8116 21.7752 19.2097 20.9045ZM18.9774 21.2765C17.7024 22.0463 16.303 22.7552 14.7256 23.4034C15.1475 24.9379 14.5349 26.3896 13.7388 27.4992C15.351 26.9572 16.6216 26.1005 17.5059 24.9848L17.7034 24.7208C18.5357 23.5484 18.8638 22.2758 18.9774 21.2765ZM26.6167 10.0752C25.143 13.6342 22.7625 16.5498 19.5884 18.8595L19.5316 18.9115C19.5126 18.9258 19.4937 18.9356 19.4747 18.9356L18.8261 19.3808C17.2886 20.3996 15.5773 21.2733 13.6925 22.0021L8.02405 16.323C8.85542 14.1647 9.87646 12.2339 11.0857 10.5301C11.1141 10.5016 11.1418 10.4727 11.1541 10.4443L11.1609 10.4164C13.4282 7.19805 16.3756 4.85023 19.9276 3.37353L23.2722 6.72437L26.6167 10.0752ZM19.8824 3.60772C16.4295 5.06843 13.5593 7.36466 11.3421 10.5012C11.3283 10.5414 11.3088 10.5731 11.2948 10.5918C11.2781 10.614 11.2575 10.6335 11.2418 10.6496C10.0671 12.3059 9.07193 14.1809 8.25534 16.2748L13.7388 21.7699C15.8313 20.9507 17.7053 19.9536 19.36 18.7747L19.4111 18.738H19.4304C19.4355 18.7331 19.4416 18.7277 19.4487 18.7207L19.4593 18.7091L19.4718 18.7004C22.583 16.4367 24.9191 13.5879 26.3815 10.1195L19.8824 3.60772ZM9.08219 10.7951C8.2131 12.196 7.38201 13.7484 6.70186 15.5279L6.53899 15.4788C4.8622 15.0145 3.30055 15.8618 2.12911 16.8154C2.66053 15.005 3.49068 13.5601 4.65111 12.5442L4.88818 12.3476C6.32403 11.2118 7.98629 10.8709 9.08219 10.7951ZM8.70827 11.0293C7.73033 11.1446 6.44183 11.474 5.27365 12.3043L5.01057 12.5018C3.89862 13.3867 3.0712 14.6586 2.50881 16.2777C3.63027 15.4813 5.05466 14.8648 6.58525 15.286C7.20319 13.7048 7.93742 12.3033 8.70827 11.0293ZM28.28 1.70727L28.2742 2.21322C28.2458 3.54101 28.076 5.87233 27.1833 8.52266L21.4773 2.76736C24.5004 1.7829 27.1085 1.66941 28.28 1.70727ZM28.0796 1.90194C26.8917 1.88402 24.556 2.02119 21.8464 2.85891L27.0947 8.15259C27.9601 5.43908 28.0702 3.0988 28.0796 1.90194Z" fill="black"/>
<path d="M7.7005 22.6998L1.2005 29.1998" stroke="black" stroke-width="2" stroke-linecap="round"/>
<path d="M10.2005 25.1998L6.2005 29.1998" stroke="black" stroke-width="2" stroke-linecap="round"/>
<path d="M5.2005 20.1998L1.2005 24.1998" stroke="black" stroke-width="2" stroke-linecap="round"/>
</svg>
