<svg width="37" height="37" viewBox="0 0 37 37" fill="none" xmlns="http://www.w3.org/2000/svg">
<path d="M18.53 37C8.31468 37.0085 0.0195782 28.7411 3.44791e-05 18.5293C-0.0195093 8.32727 8.27193 0.00855617 18.4701 6.625e-06C28.6854 -0.00854292 36.9793 8.25887 37 18.4707C37.0196 28.6727 28.7281 36.9914 18.53 37ZM3.79397 18.4682C3.77442 26.6257 10.3204 33.1954 18.4823 33.2077C26.6369 33.2199 33.2049 26.6599 33.2061 18.5024C33.2073 10.3657 26.6992 3.83631 18.5471 3.79356C10.4059 3.75081 3.81351 10.3083 3.79397 18.4682Z" fill="black"/>
<path d="M15.7031 13.494C15.7031 11.4189 15.6872 9.34379 15.7092 7.2687C15.7226 6.0571 16.7047 5.32795 17.7466 5.70657C18.3818 5.93741 18.7372 6.44428 18.7494 7.22717C18.769 8.46807 18.7592 9.70898 18.758 10.9499C18.758 13.4109 18.7678 15.8732 18.7421 18.3342C18.7372 18.8375 18.9046 19.0805 19.3687 19.2759C22.3284 20.5242 25.2758 21.8029 28.2245 23.0792C29.38 23.58 29.5755 24.9675 28.6105 25.7443C28.1097 26.1473 27.582 26.1412 27.0091 25.892C24.0067 24.5889 20.9994 23.2954 17.9933 21.9983C17.6391 21.8457 17.2898 21.6747 16.927 21.5452C16.0304 21.2252 15.6933 20.5706 15.6982 19.657C15.7104 17.6027 15.7018 15.5471 15.7018 13.4928L15.7031 13.494Z" fill="black"/>
</svg>
