<svg width="38" height="38" viewBox="0 0 38 38" fill="none" xmlns="http://www.w3.org/2000/svg">
<path d="M1.50422 15.4239C1.45232 14.5512 1.76193 14.054 2.34391 13.7887L2.34322 13.788C3.93896 13.0622 5.58262 12.4679 7.31437 11.8014L7.31506 11.8021C11.8717 10.0505 16.426 8.31757 20.989 6.56919C25.2807 4.92518 29.5503 3.27473 33.8378 1.64085L33.8371 1.64016C34.529 1.37689 35.0219 1.48653 35.4723 1.92328C35.7376 2.18067 35.8427 2.40982 35.8811 2.60829C35.9212 2.81558 35.9096 3.10378 35.7582 3.50046V3.50184C35.054 5.34786 34.3515 7.19511 33.6493 9.0413C32.947 10.8876 32.2446 12.7329 31.5411 14.5773C30.3875 17.6022 29.2307 20.625 28.0725 23.6489C26.6507 27.3606 25.2332 31.0683 23.794 34.7665C23.7653 34.8402 23.712 34.9418 23.6034 35.1117C23.5517 35.1925 23.4438 35.3589 23.3382 35.5233C22.4238 36.2764 21.2073 35.9927 20.7377 34.8742L20.6507 34.6283C19.5784 30.9604 18.3787 27.1348 17.3078 23.5059L17.3085 23.5052C17.0443 22.6104 16.5986 21.8491 15.9467 21.2458C15.3042 20.6511 14.5347 20.2782 13.7211 20.0381C10.9244 19.2129 8.17083 18.3587 5.38571 17.5072L2.58767 16.6579C2.14305 16.5239 1.90097 16.346 1.76662 16.1876C1.64071 16.0391 1.5278 15.8137 1.50422 15.4239Z" stroke="black" stroke-width="3"/>
</svg>
