<svg width="43" height="44" viewBox="0 0 43 44" fill="none" xmlns="http://www.w3.org/2000/svg">
<path d="M25.2576 16.1152C25.358 16.4243 25.6465 16.6338 25.9714 16.6338H38.7869L28.4187 24.167C28.156 24.358 28.046 24.696 28.1462 25.0049L32.1062 37.1934L21.738 29.6611C21.5082 29.4941 21.2074 29.4726 20.9597 29.5977L20.8562 29.6611L10.488 37.1934L14.449 25.0049C14.5492 24.696 14.4391 24.358 14.1765 24.167L3.80835 16.6338H16.6238C16.9487 16.6338 17.2372 16.4243 17.3376 16.1152L21.2976 3.92578L25.2576 16.1152Z" stroke="black" stroke-width="1.5" stroke-linejoin="round"/>
<path d="M21.2976 0.75C21.6225 0.750034 21.9101 0.959563 22.0105 1.26855L26.5154 15.1338H41.0955C41.4202 15.134 41.708 15.3435 41.8083 15.6523C41.9085 15.9612 41.7986 16.2993 41.5359 16.4902L29.741 25.0596L34.2468 38.9258C34.3469 39.2345 34.2368 39.5728 33.9744 39.7637C33.7115 39.9546 33.3554 39.9546 33.0925 39.7637L21.2966 31.1943L9.50269 39.7637C9.23982 39.9546 8.88371 39.9547 8.62085 39.7637C8.35833 39.5728 8.2483 39.2345 8.34839 38.9258L12.8533 25.0596L1.05933 16.4902C0.796568 16.2993 0.686634 15.9613 0.786865 15.6523C0.887243 15.3434 1.17495 15.1339 1.49976 15.1338H16.0798L20.5847 1.26855L20.6306 1.15723C20.7575 0.910226 21.0133 0.75 21.2976 0.75Z" stroke="black" stroke-width="1.5" stroke-linejoin="round"/>
</svg>
