<svg width="36" height="36" viewBox="0 0 36 36" fill="none" xmlns="http://www.w3.org/2000/svg">
<path d="M17.1094 35.9266C14.1736 35.9266 11.2378 35.9288 8.30315 35.9255C7.06067 35.9244 5.84018 35.7794 4.70326 35.2346C1.9654 33.9219 0.38426 31.7743 0.0642937 28.7326C0.0170135 28.2834 0.0016199 27.8297 0.0016199 27.3771C-0.000579177 21.5398 -0.00167872 15.7036 0.00601807 9.86734C0.0104162 6.07209 2.27547 2.99854 5.81929 2.0154C6.47132 1.83415 7.16513 1.74078 7.84245 1.73199C10.4616 1.69904 13.0829 1.71442 15.702 1.71661C16.3815 1.71661 16.8422 2.0868 17.0071 2.7415C17.1336 3.2457 16.8785 3.85206 16.3716 4.08054C16.1099 4.19918 15.7899 4.22994 15.4963 4.23104C13.0136 4.23982 10.5308 4.22664 8.04806 4.23104C5.69174 4.23433 3.74446 5.48111 2.94509 7.56492C2.71968 8.15261 2.58444 8.8139 2.58224 9.44333C2.55805 15.6508 2.56795 21.8573 2.57455 28.0648C2.57784 31.012 4.89678 33.3452 7.84904 33.3485C13.9944 33.3573 20.1397 33.3551 26.285 33.343C29.2978 33.3364 31.5892 31.0285 31.5991 28.0142C31.6079 25.4603 31.5991 22.9052 31.6079 20.3512C31.6079 20.1096 31.6409 19.8536 31.7245 19.6284C31.9312 19.0737 32.5469 18.7508 33.1242 18.8562C33.7102 18.9639 34.1819 19.4812 34.1841 20.1063C34.1951 22.8799 34.2754 25.658 34.1632 28.4273C34.0082 32.2555 31.1813 35.2785 27.3934 35.8453C26.9206 35.9156 26.4357 35.9277 25.9574 35.9288C23.0084 35.9365 20.0583 35.9321 17.1094 35.9321V35.9266Z" fill="black"/>
<path d="M35.9333 5.65555C35.8889 7.17408 35.4144 8.53001 34.3418 9.61497C29.4565 14.5542 24.5554 19.4785 19.669 24.4176C19.1713 24.9203 18.5404 24.8767 17.9402 24.949C15.8637 25.1966 13.783 25.4112 11.7065 25.6567C10.8389 25.7587 10.1583 25.0659 10.2809 24.152C10.5927 21.829 10.8949 19.504 11.2447 17.1874C11.2954 16.8537 11.5363 16.5031 11.7825 16.2523C14.79 13.1961 17.8144 10.1569 20.8346 7.1135C22.6247 5.31019 24.4074 3.49944 26.206 1.70569C28.1905 -0.272954 31.3819 -0.565182 33.5662 1.01285C35.0255 2.06699 35.9322 3.8448 35.9333 5.65555ZM24.847 6.58006C24.8016 6.62044 24.7287 6.67569 24.6642 6.74052C21.048 10.3822 17.4308 14.0218 13.8231 17.672C13.6805 17.8165 13.5917 18.0545 13.5568 18.2617C13.4395 18.9663 13.3571 19.6772 13.2641 20.3849C13.1521 21.235 13.0422 22.0851 12.927 22.9693C13.0623 22.9778 13.1637 22.999 13.263 22.9884C14.7002 22.8311 16.1363 22.6632 17.5745 22.5123C17.9708 22.4709 18.2741 22.3189 18.5615 22.0278C22.0562 18.4891 25.5624 14.9633 29.0655 11.4332C29.1754 11.3216 29.2811 11.2058 29.3635 11.1176C27.8524 9.6001 26.3634 8.10283 24.847 6.58006ZM31.1262 9.21754C31.6905 8.68091 32.2791 8.18359 32.7916 7.6172C33.2555 7.105 33.4499 6.4536 33.4721 5.75119C33.5324 3.82461 31.8289 2.19132 29.9352 2.38473C28.3913 2.542 27.6643 3.82886 26.6794 4.70661C28.2043 6.25382 29.6795 7.75109 31.1251 9.21861L31.1262 9.21754Z" fill="black"/>
</svg>
