<svg width="100" height="218" viewBox="0 0 100 218" fill="none" xmlns="http://www.w3.org/2000/svg">
<rect width="100" height="130" rx="1" fill="#ECECEC"/>
<rect x="2" y="2" width="96" height="126" rx="5" fill="#025BBB"/>
<path d="M89.8919 34.3972C89.8915 34.6353 89.4585 34.9895 89.2074 35.0183C88.7911 35.0667 87.5941 35.0709 87.1859 35.0134C86.9871 34.9859 86.6268 34.7112 86.6263 34.528V32.1433H89.8919V34.3972ZM69.9095 34.1355C69.9091 34.3997 69.4576 34.9081 69.1947 34.987C68.9644 35.0551 67.6067 35.0498 67.3607 34.987C67.1146 34.9239 66.6449 34.4098 66.6449 34.2019V32.1452H69.9095V34.1355ZM90.4437 28.7536C90.776 28.8059 90.8784 29.0934 90.9203 29.3864C90.9791 29.7973 90.9979 31.2489 90.7728 31.5563C90.6799 31.6832 90.473 31.7743 90.3187 31.7849L66.0931 31.7487C65.757 31.699 65.6327 31.3666 65.5999 31.0671C65.5541 30.6549 65.5479 29.305 65.7415 28.987C65.7901 28.9059 65.8829 28.7885 65.973 28.7624L90.4437 28.7536ZM69.2298 7.06807C75.2226 6.87835 81.3476 7.14487 87.3626 7.1501C88.9001 7.49031 90.4207 8.38444 90.8578 9.98994C91.0448 15.7405 90.8829 21.5199 90.9417 27.281C90.8802 28.1275 90.6666 28.3329 89.7992 28.3591C89.51 28.3682 89.278 28.2904 89.015 28.2878C81.808 28.2184 74.5305 28.1985 67.3353 28.3581C66.9795 28.366 66.4938 28.3921 66.1537 28.3581C65.8789 28.3319 65.7791 28.2389 65.681 27.9812C65.5044 22.1454 65.6421 16.2821 65.6107 10.4372C65.8972 8.34233 67.3976 7.72832 69.1732 7.17744C69.1928 7.1709 69.1932 7.06938 69.2298 7.06807ZM67.7367 24.7126L67.7376 24.7116C67.348 24.7903 67.3518 25.1906 67.3714 25.5085C67.412 26.1718 67.6384 27.0863 68.3812 27.2409C69.1244 27.3953 70.5578 27.5153 71.3167 27.446C71.7511 27.4067 72.0874 27.0636 71.8597 26.6345C71.6509 26.2405 69.3876 25.2715 68.8617 25.0622C68.6052 24.9601 67.9657 24.6656 67.7367 24.7126ZM88.5052 24.7126C88.1585 24.778 87.289 25.1828 86.9095 25.3425C86.3817 25.5625 84.714 26.2506 84.4798 26.7019C84.3636 26.9268 84.4393 27.1559 84.6341 27.3142C84.8788 27.5131 85.7837 27.4604 86.141 27.446C86.5461 27.4302 88.2111 27.2853 88.474 27.1179C88.5489 27.0703 88.8273 26.7449 88.8744 26.6521C89.0484 26.3131 89.3084 25.1297 89.0257 24.8483H89.0247C88.9188 24.7424 88.6557 24.6839 88.5052 24.7126ZM67.2318 22.8063C67.382 22.7883 67.3941 22.9557 67.4896 23.0368C67.7133 23.229 68.0036 23.3883 68.307 23.3962H88.6869C88.8792 23.4681 89.3685 23.1003 89.3685 22.9694V14.1218H67.2318V22.8063ZM65.1419 18.5612H63.6722C63.583 18.561 63.2501 18.3638 63.182 18.2683C63.0799 18.127 63.0649 17.9793 63.0492 17.8132C62.9916 17.1917 62.9732 15.6026 63.057 15.0085C63.0847 14.8108 63.3491 14.3828 63.5413 14.3825H65.1419V18.5612ZM92.9945 14.3825C93.1358 14.3827 93.4537 14.7724 93.4798 14.9411C93.5674 15.4975 93.5416 17.2166 93.4867 17.8132C93.471 17.9806 93.4559 18.127 93.3538 18.2683C93.2856 18.3638 92.9527 18.5611 92.8636 18.5612H91.4271L91.3285 18.4636V14.4802L91.4271 14.3825H92.9945ZM68.3724 10.3981C68.1149 10.2818 67.2344 10.9578 67.2328 11.0856V13.4704H89.3695V10.8894C89.3688 10.6708 88.7849 10.3485 88.556 10.3981H68.3724Z" fill="white"/>
<path d="M13.5977 32.1672C14.8477 31.9018 15.7289 32.8787 15.5146 34.0872L13.0713 34.1067C13.1857 34.8823 14.0573 35.1302 14.6719 34.7083C14.7561 34.6502 14.8567 34.4848 14.9434 34.5295C15.0557 34.5875 15.239 34.8454 15.3916 34.8987C14.9884 35.5556 14.0209 35.6695 13.3447 35.4387C11.807 34.9137 11.9667 32.5139 13.5977 32.1672ZM35.9814 32.8401C36.2684 31.9417 37.845 31.9557 38.4043 32.5813L37.9326 33.0422C37.6931 32.87 37.5199 32.7207 37.2051 32.717C36.9196 32.7135 36.5361 32.8467 36.6855 33.1975C36.7926 33.4483 37.4175 33.5044 37.6719 33.596C38.2629 33.8094 38.5809 34.2433 38.3525 34.886C38.034 35.7826 36.2871 35.699 35.7588 35.0208L36.2676 34.554C36.532 34.8738 37.0851 35.0798 37.4658 34.8557C37.6083 34.7719 37.6697 34.5751 37.623 34.4192C37.5326 34.1161 36.4556 34.0628 36.1387 33.7239L36.1396 33.7229C35.9222 33.4903 35.8878 33.1342 35.9814 32.8401ZM21.6553 32.1194C24.0431 32.0787 24.0513 35.776 21.4004 35.5295C19.3922 35.343 19.3641 32.1586 21.6553 32.1194ZM16.9795 32.1897C17.0194 32.1767 17.0686 32.2307 17.082 32.2307H17.7949V32.8411H17.041L16.9795 32.9026V34.4504C16.9795 34.4715 17.0475 34.6979 17.0654 34.7307C17.1844 34.9458 17.5527 34.8885 17.7539 34.8372C17.7506 35.2783 17.9804 35.4807 17.4072 35.5295C17.0337 35.5613 16.5587 35.4654 16.3604 35.1106C16.3272 35.0508 16.2068 34.6998 16.2061 34.6545V32.8411H15.6357V32.2307C15.8166 32.2055 16.0651 32.2937 16.2061 32.1692V31.2932H16.9795V32.1897ZM29.4102 32.6233C30.066 31.9475 31.6916 31.8871 32.0713 32.8831C32.0881 32.9269 32.1738 33.2104 32.1738 33.2288V35.4485H31.4404V35.0823C31.2939 35.1316 31.2319 35.2761 31.0869 35.3596C30.2507 35.8406 28.8087 35.2839 29.249 34.1741C29.5183 33.4959 30.7784 33.4377 31.4004 33.4524C31.4813 32.5025 30.2702 32.661 29.7559 33.0823L29.4102 32.6233ZM26.1455 32.1692C26.352 32.3124 26.6779 32.1754 26.9219 32.2483C26.9796 32.2896 26.9977 32.7694 26.8984 32.8411H26.1455V34.6135C26.1462 34.6253 26.2336 34.7785 26.249 34.7952C26.4174 34.9772 26.8306 34.8189 26.8799 34.8547L26.8955 35.4534C26.3819 35.6155 25.6608 35.5548 25.4502 34.9817C25.4086 34.8684 25.3301 34.5158 25.3301 34.4094V32.8411H24.8008V32.2297H25.3301V31.2932H26.1455V32.1692ZM41.1758 32.1692C41.3822 32.3125 41.7082 32.1756 41.9521 32.2483C42.01 32.2886 42.0289 32.7689 41.9297 32.8411H41.1758V34.5725C41.1758 34.5839 41.2545 34.7667 41.2695 34.7854C41.4327 34.9824 41.8839 34.803 41.9307 34.8762L41.9268 35.4534C41.1896 35.6578 40.4678 35.4709 40.4004 34.6155C40.3572 34.0652 40.4404 33.4644 40.3965 32.9085L40.335 32.8469C40.2258 32.8115 39.8233 32.8976 39.8018 32.7825L39.8506 32.2278L39.8916 32.1995C40.0452 32.2341 40.2822 32.2812 40.4023 32.1692V31.2932H41.1758V32.1692ZM8.04004 32.3938C8.59317 31.9324 9.4458 32.0811 9.79004 32.718C10.2556 31.9404 11.5638 31.9018 11.9365 32.7727C11.9644 32.8377 12.0508 33.0988 12.0508 33.1467V35.4485H11.2773V33.4729C11.2773 33.4595 11.227 33.2391 11.2168 33.2073C11.0445 32.6652 10.373 32.6378 10.0771 33.0872C10.0556 33.1198 9.93262 33.3747 9.93262 33.3919V35.4485H9.11816V33.2688C9.11749 33.2046 8.95342 32.9362 8.88867 32.8879C8.53958 32.6293 8.03566 32.8311 7.87598 33.2083C7.86025 33.2454 7.77441 33.5361 7.77441 33.554V35.4485H7V32.2297H7.7334V32.678C7.77424 32.7228 7.98717 32.4377 8.04004 32.3938ZM18.833 32.719C19.0965 32.3411 19.4649 32.039 19.9531 32.1487V32.8411C19.6261 32.8134 19.2549 32.847 19.0391 33.1292C19.0065 33.172 18.8535 33.4859 18.8535 33.5139V35.387L18.793 35.4485H18.0391V32.2307H18.8125L18.833 32.719ZM28.2832 32.3528C28.4351 32.2302 28.9042 32.0226 29.0781 32.1692C29.1583 32.2368 29.1165 32.6773 29.1006 32.803C28.7593 32.8632 28.4385 32.8123 28.1807 33.1165C28.1359 33.1694 27.9775 33.5083 27.9775 33.554V35.4485H27.2041V32.2297H27.9375V32.719C28.0942 32.6624 28.1316 32.4754 28.2832 32.3528ZM33.7666 32.2952C34.3771 31.9281 35.1947 32.1637 35.4521 32.842C35.4688 32.8856 35.5547 33.1694 35.5547 33.1877V35.4485H34.7812V33.4319C34.7805 33.4137 34.6957 33.1635 34.6787 33.1262C34.4097 32.5341 33.6248 32.7448 33.4346 33.3079C33.4179 33.3574 33.3558 33.6045 33.3555 33.636V35.4485H32.5811V32.2307H33.3145L33.335 32.679C33.5007 32.5678 33.5833 32.4056 33.7666 32.2952ZM39.5469 35.4485H38.7725V32.2307H39.5469V35.4485ZM30.6865 33.9817C30.63 33.9824 30.2707 34.1105 30.2051 34.1516C29.8581 34.3682 29.9036 34.7798 30.291 34.9075C30.9134 35.1124 31.523 34.6563 31.4004 33.9817H30.6865ZM21.4902 32.7698C20.35 32.9663 20.432 35.1172 21.9189 34.8684C22.1365 34.8322 22.3508 34.6158 22.46 34.4309C22.8889 33.7054 22.4176 32.6105 21.4902 32.7698ZM14.5771 32.9426C14.2345 32.5578 13.4675 32.692 13.1982 33.1135C13.1488 33.1909 12.997 33.4945 13.1309 33.5344H14.7188C14.8797 33.5344 14.6435 33.0168 14.5771 32.9426ZM38.9658 30.6516C39.7646 30.4455 39.9092 31.5284 39.1992 31.5794C38.5377 31.6266 38.4914 30.7738 38.9658 30.6516ZM16.6377 26.0002C9.53087 18.3299 15.7624 5.87018 26.3232 7.08228C33.5138 7.90786 38.0236 15.43 35.5469 22.2268C32.7491 29.9039 22.799 32.1602 16.9863 26.3616L16.6377 26.0002ZM34.0986 22.5159C37.7465 14.5395 30.114 6.01607 21.7686 8.72974C14.7593 11.009 12.5118 19.9788 17.6416 25.3147C22.5721 30.4431 31.1541 28.9532 34.0986 22.5159ZM26.3027 14.887C27.8044 13.2512 30.6349 13.4139 31.6094 15.5198C32.2241 16.8487 31.958 20.443 31.958 22.0598C31.9581 22.2967 32.0255 22.5478 31.96 22.8137H29.1035V17.4085C29.1034 17.3354 28.9376 16.811 28.8916 16.7249C28.4883 15.9844 27.402 15.9878 26.8643 16.5686C26.6419 16.8083 26.3605 17.4201 26.3604 17.7444V22.8137H23.5039V17.4641C23.5034 17.3584 23.3171 16.82 23.2539 16.7053C22.8237 15.9245 21.6561 16.0016 21.1514 16.6799C21.0333 16.8389 20.7593 17.4589 20.7588 17.6321V22.7854C20.7588 22.9265 20.4293 22.813 20.3408 22.8108C19.6263 22.7918 18.7187 22.8961 18.04 22.8167C17.9584 22.8071 17.8959 22.8095 17.8467 22.7297V14.1038C17.847 13.9506 18.2697 14.0852 18.3789 14.0813C19.0487 14.0594 19.7804 13.9379 20.4541 14.0169C20.5357 14.0263 20.5982 14.0238 20.6475 14.1038V15.2512L20.6465 15.2522C20.8598 15.2012 20.879 14.9713 21.0156 14.8088C22.1224 13.4923 24.462 13.4449 25.6035 14.7473C25.6926 14.8487 25.9103 15.2442 25.9395 15.2532C26.089 15.3001 26.2053 14.9922 26.3027 14.887Z" fill="#ECECEC"/>
<rect x="7.5" y="43.5" width="85" height="55" stroke="white"/>
<rect x="7.5" y="43.5" width="20.5" height="55" stroke="white"/>
<rect x="50.5" y="43.5" width="20.5" height="55" stroke="white"/>
<rect x="7.5" y="43.5" width="85" height="27" stroke="white"/>
<path d="M14.8487 55.375H18.8237C19.5237 55.375 20.0987 55.2083 20.5487 54.875C20.9987 54.5417 21.2237 54 21.2237 53.25C21.2237 52.8333 21.1487 52.4917 20.9987 52.225C20.8487 51.9583 20.6487 51.75 20.3987 51.6C20.1487 51.45 19.8571 51.35 19.5237 51.3C19.2071 51.2333 18.8737 51.2 18.5237 51.2H14.8487V55.375ZM10.9237 48.15H19.3237C20.1737 48.15 20.9487 48.225 21.6487 48.375C22.3487 48.525 22.9487 48.775 23.4487 49.125C23.9487 49.4583 24.3321 49.9083 24.5987 50.475C24.8821 51.0417 25.0237 51.7417 25.0237 52.575C25.0237 53.475 24.8154 54.225 24.3987 54.825C23.9987 55.425 23.3987 55.9167 22.5987 56.3C23.6987 56.6167 24.5154 57.175 25.0487 57.975C25.5987 58.7583 25.8737 59.7083 25.8737 60.825C25.8737 61.725 25.6987 62.5083 25.3487 63.175C24.9987 63.825 24.5237 64.3583 23.9237 64.775C23.3404 65.1917 22.6654 65.5 21.8987 65.7C21.1487 65.9 20.3737 66 19.5737 66H10.9237V48.15ZM14.8487 62.95H19.0487C19.4321 62.95 19.7987 62.9167 20.1487 62.85C20.4987 62.7667 20.8071 62.6417 21.0737 62.475C21.3404 62.2917 21.5487 62.05 21.6987 61.75C21.8654 61.45 21.9487 61.0667 21.9487 60.6C21.9487 59.6833 21.6904 59.0333 21.1737 58.65C20.6571 58.25 19.9737 58.05 19.1237 58.05H14.8487V62.95Z" fill="white"/>
<path d="M14.7823 87.075C14.7823 87.675 14.8907 88.1833 15.1073 88.6C15.324 89.0167 15.6073 89.3583 15.9573 89.625C16.324 89.875 16.749 90.0667 17.2323 90.2C17.7157 90.3167 18.2157 90.375 18.7323 90.375C19.0823 90.375 19.4573 90.35 19.8573 90.3C20.2573 90.2333 20.6323 90.1167 20.9823 89.95C21.3323 89.7833 21.624 89.5583 21.8573 89.275C22.0907 88.975 22.2073 88.6 22.2073 88.15C22.2073 87.6667 22.049 87.275 21.7323 86.975C21.4323 86.675 21.0323 86.425 20.5323 86.225C20.0323 86.025 19.4657 85.85 18.8323 85.7C18.199 85.55 17.5573 85.3833 16.9073 85.2C16.2407 85.0333 15.5907 84.8333 14.9573 84.6C14.324 84.35 13.7573 84.0333 13.2573 83.65C12.7573 83.2667 12.349 82.7917 12.0323 82.225C11.7323 81.6417 11.5823 80.9417 11.5823 80.125C11.5823 79.2083 11.774 78.4167 12.1573 77.75C12.5573 77.0667 13.074 76.5 13.7073 76.05C14.3407 75.6 15.0573 75.2667 15.8573 75.05C16.6573 74.8333 17.4573 74.725 18.2573 74.725C19.1907 74.725 20.0823 74.8333 20.9323 75.05C21.799 75.25 22.5657 75.5833 23.2323 76.05C23.899 76.5167 24.424 77.1167 24.8073 77.85C25.2073 78.5667 25.4073 79.4417 25.4073 80.475H21.6073C21.574 79.9417 21.4573 79.5 21.2573 79.15C21.074 78.8 20.824 78.525 20.5073 78.325C20.1907 78.125 19.824 77.9833 19.4073 77.9C19.0073 77.8167 18.5657 77.775 18.0823 77.775C17.7657 77.775 17.449 77.8083 17.1323 77.875C16.8157 77.9417 16.524 78.0583 16.2573 78.225C16.0073 78.3917 15.799 78.6 15.6323 78.85C15.4657 79.1 15.3823 79.4167 15.3823 79.8C15.3823 80.15 15.449 80.4333 15.5823 80.65C15.7157 80.8667 15.974 81.0667 16.3573 81.25C16.7573 81.4333 17.299 81.6167 17.9823 81.8C18.6823 81.9833 19.5907 82.2167 20.7073 82.5C21.0407 82.5667 21.499 82.6917 22.0823 82.875C22.6823 83.0417 23.274 83.3167 23.8573 83.7C24.4407 84.0833 24.9407 84.6 25.3573 85.25C25.7907 85.8833 26.0073 86.7 26.0073 87.7C26.0073 88.5167 25.849 89.275 25.5323 89.975C25.2157 90.675 24.7407 91.2833 24.1073 91.8C23.4907 92.3 22.7157 92.6917 21.7823 92.975C20.8657 93.2583 19.799 93.4 18.5823 93.4C17.599 93.4 16.6407 93.275 15.7073 93.025C14.7907 92.7917 13.974 92.4167 13.2573 91.9C12.5573 91.3833 11.999 90.725 11.5823 89.925C11.1657 89.125 10.9657 88.175 10.9823 87.075H14.7823Z" fill="white"/>
<path d="M47.1099 59.25C47.1099 61.6667 46.4349 63.4667 45.0849 64.65C43.7349 65.8167 41.8682 66.4 39.4849 66.4C37.0682 66.4 35.1932 65.8167 33.8599 64.65C32.5432 63.4833 31.8849 61.6833 31.8849 59.25V48.15H35.8099V59.25C35.8099 59.7333 35.8515 60.2083 35.9349 60.675C36.0182 61.1417 36.1932 61.5583 36.4599 61.925C36.7265 62.275 37.0932 62.5667 37.5599 62.8C38.0432 63.0167 38.6849 63.125 39.4849 63.125C40.8849 63.125 41.8515 62.8167 42.3849 62.2C42.9182 61.5667 43.1849 60.5833 43.1849 59.25V48.15H47.1099V59.25Z" fill="white"/>
<path d="M37.0334 78.45H31.6834V75.15H46.3084V78.45H40.9584V93H37.0334V78.45Z" fill="white"/>
<path d="M56.7823 60.075C56.7823 60.675 56.8907 61.1833 57.1073 61.6C57.324 62.0167 57.6073 62.3583 57.9573 62.625C58.324 62.875 58.749 63.0667 59.2323 63.2C59.7157 63.3167 60.2157 63.375 60.7323 63.375C61.0823 63.375 61.4573 63.35 61.8573 63.3C62.2573 63.2333 62.6323 63.1167 62.9823 62.95C63.3323 62.7833 63.624 62.5583 63.8573 62.275C64.0907 61.975 64.2073 61.6 64.2073 61.15C64.2073 60.6667 64.049 60.275 63.7323 59.975C63.4323 59.675 63.0323 59.425 62.5323 59.225C62.0323 59.025 61.4657 58.85 60.8323 58.7C60.199 58.55 59.5573 58.3833 58.9073 58.2C58.2407 58.0333 57.5907 57.8333 56.9573 57.6C56.324 57.35 55.7573 57.0333 55.2573 56.65C54.7573 56.2667 54.349 55.7917 54.0323 55.225C53.7323 54.6417 53.5823 53.9417 53.5823 53.125C53.5823 52.2083 53.774 51.4167 54.1573 50.75C54.5573 50.0667 55.074 49.5 55.7073 49.05C56.3407 48.6 57.0573 48.2667 57.8573 48.05C58.6573 47.8333 59.4573 47.725 60.2573 47.725C61.1907 47.725 62.0823 47.8333 62.9323 48.05C63.799 48.25 64.5657 48.5833 65.2323 49.05C65.899 49.5167 66.424 50.1167 66.8073 50.85C67.2073 51.5667 67.4073 52.4417 67.4073 53.475H63.6073C63.574 52.9417 63.4573 52.5 63.2573 52.15C63.074 51.8 62.824 51.525 62.5073 51.325C62.1907 51.125 61.824 50.9833 61.4073 50.9C61.0073 50.8167 60.5657 50.775 60.0823 50.775C59.7657 50.775 59.449 50.8083 59.1323 50.875C58.8157 50.9417 58.524 51.0583 58.2573 51.225C58.0073 51.3917 57.799 51.6 57.6323 51.85C57.4657 52.1 57.3823 52.4167 57.3823 52.8C57.3823 53.15 57.449 53.4333 57.5823 53.65C57.7157 53.8667 57.974 54.0667 58.3573 54.25C58.7573 54.4333 59.299 54.6167 59.9823 54.8C60.6823 54.9833 61.5907 55.2167 62.7073 55.5C63.0407 55.5667 63.499 55.6917 64.0823 55.875C64.6823 56.0417 65.274 56.3167 65.8573 56.7C66.4407 57.0833 66.9407 57.6 67.3573 58.25C67.7907 58.8833 68.0073 59.7 68.0073 60.7C68.0073 61.5167 67.849 62.275 67.5323 62.975C67.2157 63.675 66.7407 64.2833 66.1073 64.8C65.4907 65.3 64.7157 65.6917 63.7823 65.975C62.8657 66.2583 61.799 66.4 60.5823 66.4C59.599 66.4 58.6407 66.275 57.7073 66.025C56.7907 65.7917 55.974 65.4167 55.2573 64.9C54.5573 64.3833 53.999 63.725 53.5823 62.925C53.1657 62.125 52.9657 61.175 52.9823 60.075H56.7823Z" fill="white"/>
<path d="M56.146 84.15C56.146 84.9 56.2293 85.6333 56.396 86.35C56.5793 87.05 56.8627 87.6833 57.246 88.25C57.6293 88.8167 58.1293 89.275 58.746 89.625C59.3627 89.9583 60.1127 90.125 60.996 90.125C61.8793 90.125 62.6293 89.9583 63.246 89.625C63.8627 89.275 64.3627 88.8167 64.746 88.25C65.1293 87.6833 65.4043 87.05 65.571 86.35C65.7543 85.6333 65.846 84.9 65.846 84.15C65.846 83.3667 65.7543 82.6083 65.571 81.875C65.4043 81.1417 65.1293 80.4917 64.746 79.925C64.3627 79.3417 63.8627 78.8833 63.246 78.55C62.6293 78.2 61.8793 78.025 60.996 78.025C60.1127 78.025 59.3627 78.2 58.746 78.55C58.1293 78.8833 57.6293 79.3417 57.246 79.925C56.8627 80.4917 56.5793 81.1417 56.396 81.875C56.2293 82.6083 56.146 83.3667 56.146 84.15ZM52.221 84.15C52.221 82.8167 52.421 81.5833 52.821 80.45C53.221 79.3 53.796 78.3 54.546 77.45C55.296 76.6 56.2127 75.9333 57.296 75.45C58.396 74.9667 59.6293 74.725 60.996 74.725C62.3793 74.725 63.6127 74.9667 64.696 75.45C65.7793 75.9333 66.696 76.6 67.446 77.45C68.196 78.3 68.771 79.3 69.171 80.45C69.571 81.5833 69.771 82.8167 69.771 84.15C69.771 85.45 69.571 86.6667 69.171 87.8C68.771 88.9167 68.196 89.8917 67.446 90.725C66.696 91.5583 65.7793 92.2167 64.696 92.7C63.6127 93.1667 62.3793 93.4 60.996 93.4C59.6293 93.4 58.396 93.1667 57.296 92.7C56.2127 92.2167 55.296 91.5583 54.546 90.725C53.796 89.8917 53.221 88.9167 52.821 87.8C52.421 86.6667 52.221 85.45 52.221 84.15Z" fill="white"/>
<path d="M79.8126 83.55H82.8626C83.3126 83.55 83.7459 83.5167 84.1626 83.45C84.5793 83.3833 84.9459 83.2583 85.2626 83.075C85.5793 82.875 85.8293 82.6 86.0126 82.25C86.2126 81.9 86.3126 81.4417 86.3126 80.875C86.3126 80.3083 86.2126 79.85 86.0126 79.5C85.8293 79.15 85.5793 78.8833 85.2626 78.7C84.9459 78.5 84.5793 78.3667 84.1626 78.3C83.7459 78.2333 83.3126 78.2 82.8626 78.2H79.8126V83.55ZM75.8876 75.15H83.9376C85.0543 75.15 86.0043 75.3167 86.7876 75.65C87.5709 75.9667 88.2043 76.3917 88.6876 76.925C89.1876 77.4583 89.5459 78.0667 89.7626 78.75C89.9959 79.4333 90.1126 80.1417 90.1126 80.875C90.1126 81.5917 89.9959 82.3 89.7626 83C89.5459 83.6833 89.1876 84.2917 88.6876 84.825C88.2043 85.3583 87.5709 85.7917 86.7876 86.125C86.0043 86.4417 85.0543 86.6 83.9376 86.6H79.8126V93H75.8876V75.15Z" fill="white"/>
<rect x="45" y="130" width="9" height="88" fill="#D9D9D9"/>
<rect x="40" y="211" width="20" height="7" fill="#D9D9D9"/>
</svg>
