<svg width="30" height="66" viewBox="0 0 30 66" fill="none" xmlns="http://www.w3.org/2000/svg">
<path d="M16.8 62.7H18.6V66H11.4V62.7H12.9V39H16.8V62.7Z" fill="#ECECEC"/>
<path d="M0 0.300001C0 0.134316 0.134315 0 0.3 0H29.7C29.8657 0 30 0.134315 30 0.3V38.7C30 38.8657 29.8657 39 29.7 39H0.3C0.134314 39 0 38.8657 0 38.7V0.300001Z" fill="#ECECEC"/>
<path d="M0.6 2.10004C0.6 1.27161 1.27157 0.600037 2.1 0.600037H27.9C28.7284 0.600037 29.4 1.27161 29.4 2.10004V36.9C29.4 37.7285 28.7284 38.4 27.9 38.4H2.1C1.27157 38.4 0.6 37.7285 0.6 36.9V2.10004Z" fill="#025BBB"/>
<path d="M26.9676 10.3191C26.9674 10.3906 26.8375 10.4968 26.7622 10.5055C26.6373 10.52 26.2782 10.5213 26.1558 10.504C26.0962 10.4957 25.9881 10.4133 25.9879 10.3584V9.64295H26.9676V10.3191ZM20.9729 10.2406C20.9727 10.3199 20.837 10.4725 20.7581 10.4961C20.6886 10.5164 20.282 10.5149 20.2082 10.4961C20.1344 10.4772 19.9935 10.3229 19.9935 10.2605V9.64354H20.9729V10.2406ZM27.1331 8.62606C27.2328 8.64176 27.2635 8.72798 27.2761 8.8159C27.2938 8.93916 27.2994 9.37463 27.2318 9.46688C27.204 9.50492 27.1419 9.53227 27.0956 9.53543L19.8279 9.52459C19.7271 9.50968 19.6898 9.40996 19.68 9.3201C19.6663 9.19645 19.6641 8.79147 19.7222 8.69608C19.7367 8.67174 19.7648 8.63654 19.7919 8.6287L27.1331 8.62606ZM20.769 2.1201C22.5668 2.06319 24.4043 2.14343 26.2088 2.145C26.67 2.24706 27.1262 2.51509 27.2573 2.99666C27.3135 4.72189 27.2649 6.45589 27.2825 8.18426C27.2641 8.43822 27.2 8.49984 26.9398 8.5077C26.853 8.51045 26.7834 8.4871 26.7045 8.48631C24.5424 8.46551 22.3589 8.45952 20.2003 8.50741C20.0936 8.50976 19.9481 8.51759 19.8461 8.50741C19.7637 8.49956 19.7337 8.47165 19.7043 8.39432C19.6513 6.64359 19.6926 4.88462 19.6832 3.13114C19.7692 2.50267 20.2193 2.31847 20.752 2.15321C20.7579 2.15124 20.758 2.12049 20.769 2.1201ZM20.321 7.41375L20.3213 7.41346C20.2044 7.43705 20.2056 7.55715 20.2114 7.65252C20.2236 7.85151 20.2915 8.12588 20.5144 8.17225C20.7373 8.21857 21.1674 8.25458 21.395 8.23377C21.5253 8.22197 21.6262 8.11905 21.5579 7.99032C21.4953 7.87213 20.8163 7.58144 20.6585 7.51864C20.5816 7.48802 20.3897 7.39967 20.321 7.41375ZM26.5516 7.41375C26.4475 7.43338 26.1867 7.55453 26.0729 7.60243C25.9146 7.66839 25.4142 7.87511 25.344 8.01053C25.3091 8.07802 25.3318 8.14675 25.3902 8.19422C25.4636 8.25386 25.7347 8.2381 25.842 8.23377C25.9633 8.22906 26.4633 8.18558 26.5422 8.13534C26.5647 8.12106 26.6482 8.02344 26.6623 7.99559C26.7145 7.89392 26.7925 7.53887 26.7077 7.45448H26.7074C26.6757 7.4227 26.5967 7.40516 26.5516 7.41375ZM20.1695 6.84188C20.2146 6.83647 20.2183 6.8867 20.2469 6.91102C20.314 6.96867 20.4011 7.01648 20.4921 7.01883H26.6061C26.6638 7.0404 26.8106 6.93006 26.8106 6.8908V4.23651H20.1695V6.84188ZM19.5426 5.56834H19.1017C19.0749 5.56829 18.9751 5.50911 18.9546 5.48045C18.924 5.43808 18.9195 5.39375 18.9148 5.34393C18.8975 5.15747 18.892 4.68074 18.9171 4.50252C18.9254 4.44323 19.0047 4.31479 19.0624 4.31473H19.5426V5.56834ZM27.8984 4.31473C27.9408 4.31481 28.0361 4.43169 28.044 4.48231C28.0702 4.64925 28.0625 5.16496 28.046 5.34393C28.0413 5.39415 28.0368 5.43808 28.0062 5.48045C27.9857 5.50911 27.8858 5.56829 27.8591 5.56834H27.4281L27.3985 5.53905V4.34403L27.4281 4.31473H27.8984ZM20.5117 3.11942C20.4345 3.08451 20.1703 3.28735 20.1698 3.32567V4.0411H26.8109V3.26678C26.8107 3.20123 26.6355 3.10451 26.5668 3.11942H20.5117Z" fill="white"/>
<path d="M4.0793 9.64989C4.45425 9.5703 4.71862 9.86336 4.6544 10.2259L3.92139 10.2317C3.95561 10.4645 4.21716 10.5391 4.40157 10.4125C4.42685 10.3951 4.457 10.3454 4.48301 10.3589C4.51671 10.3763 4.57172 10.4536 4.61748 10.4696C4.4965 10.6667 4.20626 10.7006 4.00342 10.6313C3.5421 10.4738 3.59 9.75388 4.0793 9.64989ZM10.7944 9.85203C10.8805 9.58246 11.3535 9.5867 11.5213 9.7744L11.3798 9.91268C11.3079 9.86099 11.256 9.81622 11.1615 9.81512C11.0759 9.81404 10.9608 9.85398 11.0057 9.95926C11.0378 10.0345 11.2253 10.0513 11.3016 10.0788C11.4789 10.1428 11.5743 10.273 11.5058 10.4658C11.4102 10.7348 10.8861 10.7097 10.7276 10.5062L10.8803 10.3659C10.9596 10.462 11.1255 10.5238 11.2398 10.4564C11.2825 10.4312 11.301 10.3723 11.2869 10.3255C11.2596 10.2346 10.9367 10.2188 10.8416 10.1172L10.8419 10.1169C10.7767 10.0471 10.7663 9.94026 10.7944 9.85203ZM6.49659 9.63582C7.21294 9.6236 7.21542 10.7325 6.42012 10.6586C5.81768 10.6026 5.80924 9.64759 6.49659 9.63582ZM5.09385 9.65692C5.10583 9.65301 5.12058 9.66922 5.12461 9.66922H5.33848V9.85233H5.11231L5.09385 9.87078V10.3351C5.09396 10.3418 5.1143 10.4096 5.11963 10.4192C5.15532 10.4837 5.26581 10.4666 5.32618 10.4512C5.3252 10.5835 5.39409 10.6439 5.22217 10.6586C5.11011 10.6681 4.96762 10.6396 4.90811 10.5332C4.89818 10.5153 4.86182 10.4091 4.86182 10.3961V9.85233H4.69073V9.66922C4.74496 9.66165 4.81953 9.68808 4.86182 9.65077V9.38797H5.09385V9.65692ZM8.82306 9.787C9.0198 9.58426 9.5075 9.56614 9.6214 9.86492C9.62644 9.87815 9.65178 9.96171 9.65216 9.96834V10.6346H9.43214V10.5247C9.38819 10.5395 9.36957 10.5829 9.32608 10.6079C9.07523 10.7521 8.64269 10.5851 8.77472 10.2522C8.85549 10.0488 9.23352 10.0313 9.42013 10.0357C9.44444 9.75069 9.08105 9.79827 8.92677 9.92469L8.82306 9.787ZM7.84366 9.65077C7.90562 9.69369 8.0034 9.65263 8.07657 9.6745C8.09386 9.68702 8.09931 9.83086 8.06954 9.85233H7.84366V10.3841C7.84419 10.3881 7.87001 10.4331 7.87472 10.4383C7.92519 10.493 8.04919 10.4457 8.06397 10.4564L8.06866 10.6357C7.91457 10.6844 7.69826 10.6664 7.63507 10.4945C7.62261 10.4606 7.59908 10.3548 7.59903 10.3228V9.85233H7.44024V9.66893H7.59903V9.38797H7.84366V9.65077ZM12.3527 9.65077C12.4147 9.69376 12.5125 9.65268 12.5857 9.6745C12.603 9.68659 12.6087 9.83075 12.5789 9.85233H12.3527V10.3718C12.3528 10.3753 12.3764 10.43 12.3809 10.4356C12.4299 10.4947 12.5653 10.4408 12.5792 10.4629L12.578 10.636C12.3569 10.6974 12.1403 10.6411 12.1201 10.3844C12.1072 10.2193 12.1321 10.0393 12.119 9.87254L12.1005 9.85408C12.0677 9.84342 11.9466 9.86925 11.9405 9.83446L11.9552 9.66834L11.9675 9.65985C12.0136 9.67023 12.0847 9.68436 12.1207 9.65077V9.38797H12.3527V9.65077ZM2.41201 9.71815C2.57796 9.57969 2.83375 9.62429 2.93701 9.81541C3.07668 9.58215 3.4691 9.57034 3.58096 9.83153C3.58927 9.85083 3.61524 9.92961 3.61524 9.94403V10.6346H3.3832V10.0419C3.3832 10.0379 3.36814 9.97192 3.36504 9.96219C3.31335 9.79955 3.11188 9.79129 3.02315 9.92615C3.0167 9.93588 2.98018 10.0114 2.97979 10.0173V10.6346H2.73545V9.98065C2.73536 9.96151 2.68607 9.88095 2.6666 9.86639C2.56187 9.78879 2.4107 9.84932 2.36279 9.96248C2.35802 9.97386 2.33232 10.0608 2.33232 10.0662V10.6343H2.1V9.66893H2.32002V9.8034C2.33235 9.81667 2.39614 9.73135 2.41201 9.71815ZM5.64991 9.81571C5.72895 9.70233 5.83948 9.61169 5.98594 9.64461V9.85233C5.88784 9.84404 5.77647 9.8541 5.71172 9.93875C5.70194 9.95171 5.6565 10.0447 5.65606 10.0539V10.6161L5.6379 10.6346H5.41172V9.66922H5.64375L5.64991 9.81571ZM10.13 9.68856C10.3132 9.57841 10.5584 9.64907 10.6357 9.85262C10.6407 9.8657 10.6664 9.95083 10.6664 9.95633V10.6346H10.4344V10.0296C10.4344 10.0246 10.4088 9.94911 10.4036 9.93787C10.3229 9.76016 10.0874 9.82338 10.0304 9.99237C10.0254 10.0073 10.0067 10.0816 10.0067 10.0908V10.6346H9.77433V9.66922H9.99435L10.0005 9.80369C10.0502 9.77033 10.075 9.72167 10.13 9.68856ZM11.8641 10.6346H11.6318V9.66922H11.8641V10.6346ZM8.48497 9.70584C8.53055 9.66906 8.67127 9.60677 8.72345 9.65077C8.7475 9.6711 8.73495 9.80327 8.73019 9.8409C8.6278 9.85897 8.53155 9.84368 8.45421 9.93494C8.44074 9.95091 8.39327 10.0525 8.39327 10.0662V10.6343H8.16124V9.66893H8.38126V9.81571C8.42826 9.79874 8.4395 9.74263 8.48497 9.70584ZM9.20597 10.1945C9.189 10.1947 9.08116 10.2332 9.06153 10.2455C8.95745 10.3105 8.97108 10.434 9.08731 10.4722C9.27404 10.5337 9.45691 10.3969 9.42013 10.1945H9.20597ZM6.44708 9.83094C6.10501 9.88991 6.12961 10.5352 6.57569 10.4605C6.64095 10.4497 6.70524 10.3848 6.73799 10.3293C6.86674 10.1116 6.72531 9.78316 6.44708 9.83094ZM4.37315 9.8828C4.2704 9.76735 4.04031 9.80737 3.95948 9.93377C3.94469 9.95687 3.89906 10.0484 3.93926 10.0603L4.41563 10.06C4.46389 10.06 4.39308 9.90509 4.37315 9.8828ZM11.6898 9.19549C11.9294 9.13366 11.9728 9.45854 11.7598 9.47381C11.5613 9.48798 11.5475 9.23217 11.6898 9.19549ZM5.0959 7.90849C2.80031 5.61862 4.67844 1.75532 7.89698 2.12472C10.0541 2.37239 11.407 4.62878 10.6641 6.66777C9.82477 8.97094 6.83971 9.64779 5.0959 7.90819V7.90849ZM10.2296 6.75449C11.3239 4.36162 9.03418 1.80458 6.53057 2.61866C4.42775 3.3024 3.75357 5.99334 5.29248 7.59413C6.77165 9.13277 9.34627 8.68581 10.2296 6.75449ZM7.89083 4.46612C8.34131 3.97536 9.19043 4.02395 9.48282 4.65567C9.66732 5.05423 9.58741 6.13287 9.58741 6.61797C9.58744 6.689 9.60765 6.76437 9.588 6.84414H8.73106V5.22256C8.73106 5.20074 8.68134 5.04349 8.66749 5.01748C8.54651 4.79535 8.22059 4.79636 8.05929 4.97061C7.99258 5.04255 7.90811 5.22607 7.90811 5.32334V6.84414H7.05118V5.23926C7.0511 5.20769 6.99515 5.04605 6.97618 5.01162C6.84713 4.77732 6.49684 4.80046 6.34542 5.00401C6.30998 5.0517 6.22773 5.23778 6.22764 5.28965V6.83564C6.22757 6.87791 6.12879 6.84393 6.10225 6.84326C5.88789 6.83756 5.61563 6.86856 5.41202 6.84472C5.38748 6.84187 5.3688 6.84268 5.35401 6.81865V4.23116C5.35401 4.18512 5.48091 4.2253 5.51368 4.22413C5.71461 4.21757 5.93413 4.1814 6.13624 4.20508C6.1607 4.20792 6.17948 4.2069 6.19424 4.23087V4.5754L6.19395 4.57569C6.25797 4.5604 6.26369 4.49141 6.30469 4.44268C6.63672 4.04769 7.33861 4.03344 7.68106 4.42422C7.70778 4.45464 7.77311 4.57329 7.78184 4.57598C7.82669 4.59002 7.8616 4.4977 7.89083 4.46612Z" fill="#ECECEC"/>
<path d="M27.9 12.9V29.7H2.1V12.9H27.9ZM2.4 29.4H27.6V13.2H2.4V29.4Z" fill="white"/>
<path d="M8.55 12.9V29.7H2.1V12.9H8.55ZM2.4 29.4H8.25V13.2H2.4V29.4Z" fill="white"/>
<path d="M21.45 12.9V29.7H15V12.9H21.45ZM15.3 29.4H21.15V13.2H15.3V29.4Z" fill="white"/>
<path d="M27.9 12.9V21.3H2.1V12.9H27.9ZM2.4 21H27.6V13.2H2.4V21Z" fill="white"/>
<path d="M4.45462 16.6125H5.64712C5.85712 16.6125 6.02962 16.5625 6.16462 16.4625C6.29962 16.3625 6.36712 16.2 6.36712 15.975C6.36712 15.85 6.34462 15.7475 6.29962 15.6675C6.25462 15.5875 6.19462 15.525 6.11962 15.48C6.04462 15.435 5.95712 15.405 5.85712 15.39C5.76212 15.37 5.66212 15.36 5.55712 15.36H4.45462V16.6125ZM3.27712 14.445H5.79712C6.05212 14.445 6.28462 14.4675 6.49462 14.5125C6.70462 14.5575 6.88462 14.6325 7.03462 14.7375C7.18462 14.8375 7.29962 14.9725 7.37962 15.1425C7.46462 15.3125 7.50712 15.5225 7.50712 15.7725C7.50712 16.0425 7.44462 16.2675 7.31962 16.4475C7.19962 16.6275 7.01962 16.775 6.77962 16.89C7.10962 16.985 7.35462 17.1525 7.51462 17.3925C7.67962 17.6275 7.76212 17.9125 7.76212 18.2475C7.76212 18.5175 7.70962 18.7525 7.60462 18.9525C7.49962 19.1475 7.35712 19.3075 7.17712 19.4325C7.00212 19.5575 6.79962 19.65 6.56962 19.71C6.34462 19.77 6.11212 19.8 5.87212 19.8H3.27712V14.445ZM4.45462 18.885H5.71462C5.82962 18.885 5.93962 18.875 6.04462 18.855C6.14962 18.83 6.24212 18.7925 6.32212 18.7425C6.40212 18.6875 6.46462 18.615 6.50962 18.525C6.55962 18.435 6.58462 18.32 6.58462 18.18C6.58462 17.905 6.50712 17.71 6.35212 17.595C6.19712 17.475 5.99212 17.415 5.73712 17.415H4.45462V18.885Z" fill="white"/>
<path d="M4.4347 26.1225C4.4347 26.3025 4.4672 26.455 4.5322 26.58C4.5972 26.705 4.6822 26.8075 4.7872 26.8875C4.8972 26.9625 5.0247 27.02 5.1697 27.06C5.3147 27.095 5.4647 27.1125 5.6197 27.1125C5.7247 27.1125 5.8372 27.105 5.9572 27.09C6.0772 27.07 6.1897 27.035 6.2947 26.985C6.3997 26.935 6.4872 26.8675 6.5572 26.7825C6.6272 26.6925 6.6622 26.58 6.6622 26.445C6.6622 26.3 6.6147 26.1825 6.5197 26.0925C6.4297 26.0025 6.3097 25.9275 6.1597 25.8675C6.0097 25.8075 5.8397 25.755 5.6497 25.71C5.4597 25.665 5.2672 25.615 5.0722 25.56C4.8722 25.51 4.6772 25.45 4.4872 25.38C4.2972 25.305 4.1272 25.21 3.9772 25.095C3.8272 24.98 3.7047 24.8375 3.6097 24.6675C3.5197 24.4925 3.4747 24.2825 3.4747 24.0375C3.4747 23.7625 3.5322 23.525 3.6472 23.325C3.7672 23.12 3.9222 22.95 4.1122 22.815C4.3022 22.68 4.5172 22.58 4.7572 22.515C4.9972 22.45 5.2372 22.4175 5.4772 22.4175C5.7572 22.4175 6.0247 22.45 6.2797 22.515C6.5397 22.575 6.7697 22.675 6.9697 22.815C7.1697 22.955 7.3272 23.135 7.4422 23.355C7.5622 23.57 7.6222 23.8325 7.6222 24.1425H6.4822C6.4722 23.9825 6.4372 23.85 6.3772 23.745C6.3222 23.64 6.2472 23.5575 6.1522 23.4975C6.0572 23.4375 5.9472 23.395 5.8222 23.37C5.7022 23.345 5.5697 23.3325 5.4247 23.3325C5.3297 23.3325 5.2347 23.3425 5.1397 23.3625C5.0447 23.3825 4.9572 23.4175 4.8772 23.4675C4.8022 23.5175 4.7397 23.58 4.6897 23.655C4.6397 23.73 4.6147 23.825 4.6147 23.94C4.6147 24.045 4.6347 24.13 4.6747 24.195C4.7147 24.26 4.7922 24.32 4.9072 24.375C5.0272 24.43 5.1897 24.485 5.3947 24.54C5.6047 24.595 5.8772 24.665 6.2122 24.75C6.3122 24.77 6.4497 24.8075 6.6247 24.8625C6.8047 24.9125 6.9822 24.995 7.1572 25.11C7.3322 25.225 7.4822 25.38 7.6072 25.575C7.7372 25.765 7.8022 26.01 7.8022 26.31C7.8022 26.555 7.7547 26.7825 7.6597 26.9925C7.5647 27.2025 7.4222 27.385 7.2322 27.54C7.0472 27.69 6.8147 27.8075 6.5347 27.8925C6.2597 27.9775 5.9397 28.02 5.5747 28.02C5.2797 28.02 4.9922 27.9825 4.7122 27.9075C4.4372 27.8375 4.1922 27.725 3.9772 27.57C3.7672 27.415 3.5997 27.2175 3.4747 26.9775C3.3497 26.7375 3.2897 26.4525 3.2947 26.1225H4.4347Z" fill="white"/>
<path d="M14.133 17.775C14.133 18.5 13.9305 19.04 13.5255 19.395C13.1205 19.745 12.5605 19.92 11.8455 19.92C11.1205 19.92 10.558 19.745 10.158 19.395C9.76296 19.045 9.56546 18.505 9.56546 17.775V14.445H10.743V17.775C10.743 17.92 10.7555 18.0625 10.7805 18.2025C10.8055 18.3425 10.858 18.4675 10.938 18.5775C11.018 18.6825 11.128 18.77 11.268 18.84C11.413 18.905 11.6055 18.9375 11.8455 18.9375C12.2655 18.9375 12.5555 18.845 12.7155 18.66C12.8755 18.47 12.9555 18.175 12.9555 17.775V14.445H14.133V17.775Z" fill="white"/>
<path d="M11.11 23.535H9.50502V22.545H13.8925V23.535H12.2875V27.9H11.11V23.535Z" fill="white"/>
<path d="M17.0347 18.0225C17.0347 18.2025 17.0672 18.355 17.1322 18.48C17.1972 18.605 17.2822 18.7075 17.3872 18.7875C17.4972 18.8625 17.6247 18.92 17.7697 18.96C17.9147 18.995 18.0647 19.0125 18.2197 19.0125C18.3247 19.0125 18.4372 19.005 18.5572 18.99C18.6772 18.97 18.7897 18.935 18.8947 18.885C18.9997 18.835 19.0872 18.7675 19.1572 18.6825C19.2272 18.5925 19.2622 18.48 19.2622 18.345C19.2622 18.2 19.2147 18.0825 19.1197 17.9925C19.0297 17.9025 18.9097 17.8275 18.7597 17.7675C18.6097 17.7075 18.4397 17.655 18.2497 17.61C18.0597 17.565 17.8672 17.515 17.6722 17.46C17.4722 17.41 17.2772 17.35 17.0872 17.28C16.8972 17.205 16.7272 17.11 16.5772 16.995C16.4272 16.88 16.3047 16.7375 16.2097 16.5675C16.1197 16.3925 16.0747 16.1825 16.0747 15.9375C16.0747 15.6625 16.1322 15.425 16.2472 15.225C16.3672 15.02 16.5222 14.85 16.7122 14.715C16.9022 14.58 17.1172 14.48 17.3572 14.415C17.5972 14.35 17.8372 14.3175 18.0772 14.3175C18.3572 14.3175 18.6247 14.35 18.8797 14.415C19.1397 14.475 19.3697 14.575 19.5697 14.715C19.7697 14.855 19.9272 15.035 20.0422 15.255C20.1622 15.47 20.2222 15.7325 20.2222 16.0425H19.0822C19.0722 15.8825 19.0372 15.75 18.9772 15.645C18.9222 15.54 18.8472 15.4575 18.7522 15.3975C18.6572 15.3375 18.5472 15.295 18.4222 15.27C18.3022 15.245 18.1697 15.2325 18.0247 15.2325C17.9297 15.2325 17.8347 15.2425 17.7397 15.2625C17.6447 15.2825 17.5572 15.3175 17.4772 15.3675C17.4022 15.4175 17.3397 15.48 17.2897 15.555C17.2397 15.63 17.2147 15.725 17.2147 15.84C17.2147 15.945 17.2347 16.03 17.2747 16.095C17.3147 16.16 17.3922 16.22 17.5072 16.275C17.6272 16.33 17.7897 16.385 17.9947 16.44C18.2047 16.495 18.4772 16.565 18.8122 16.65C18.9122 16.67 19.0497 16.7075 19.2247 16.7625C19.4047 16.8125 19.5822 16.895 19.7572 17.01C19.9322 17.125 20.0822 17.28 20.2072 17.475C20.3372 17.665 20.4022 17.91 20.4022 18.21C20.4022 18.455 20.3547 18.6825 20.2597 18.8925C20.1647 19.1025 20.0222 19.285 19.8322 19.44C19.6472 19.59 19.4147 19.7075 19.1347 19.7925C18.8597 19.8775 18.5397 19.92 18.1747 19.92C17.8797 19.92 17.5922 19.8825 17.3122 19.8075C17.0372 19.7375 16.7922 19.625 16.5772 19.47C16.3672 19.315 16.1997 19.1175 16.0747 18.8775C15.9497 18.6375 15.8897 18.3525 15.8947 18.0225H17.0347Z" fill="white"/>
<path d="M16.8438 25.245C16.8438 25.47 16.8688 25.69 16.9188 25.905C16.9738 26.115 17.0588 26.305 17.1738 26.475C17.2888 26.645 17.4388 26.7825 17.6238 26.8875C17.8088 26.9875 18.0338 27.0375 18.2988 27.0375C18.5638 27.0375 18.7888 26.9875 18.9738 26.8875C19.1588 26.7825 19.3088 26.645 19.4238 26.475C19.5388 26.305 19.6213 26.115 19.6713 25.905C19.7263 25.69 19.7538 25.47 19.7538 25.245C19.7538 25.01 19.7263 24.7825 19.6713 24.5625C19.6213 24.3425 19.5388 24.1475 19.4238 23.9775C19.3088 23.8025 19.1588 23.665 18.9738 23.565C18.7888 23.46 18.5638 23.4075 18.2988 23.4075C18.0338 23.4075 17.8088 23.46 17.6238 23.565C17.4388 23.665 17.2888 23.8025 17.1738 23.9775C17.0588 24.1475 16.9738 24.3425 16.9188 24.5625C16.8688 24.7825 16.8438 25.01 16.8438 25.245ZM15.6663 25.245C15.6663 24.845 15.7263 24.475 15.8463 24.135C15.9663 23.79 16.1388 23.49 16.3638 23.235C16.5888 22.98 16.8638 22.78 17.1888 22.635C17.5188 22.49 17.8888 22.4175 18.2988 22.4175C18.7138 22.4175 19.0838 22.49 19.4088 22.635C19.7338 22.78 20.0088 22.98 20.2338 23.235C20.4588 23.49 20.6313 23.79 20.7513 24.135C20.8713 24.475 20.9313 24.845 20.9313 25.245C20.9313 25.635 20.8713 26 20.7513 26.34C20.6313 26.675 20.4588 26.9675 20.2338 27.2175C20.0088 27.4675 19.7338 27.665 19.4088 27.81C19.0838 27.95 18.7138 28.02 18.2988 28.02C17.8888 28.02 17.5188 27.95 17.1888 27.81C16.8638 27.665 16.5888 27.4675 16.3638 27.2175C16.1388 26.9675 15.9663 26.675 15.8463 26.34C15.7263 26 15.6663 25.635 15.6663 25.245Z" fill="white"/>
<path d="M23.9438 25.065H24.8588C24.9938 25.065 25.1238 25.055 25.2488 25.035C25.3738 25.015 25.4838 24.9775 25.5788 24.9225C25.6738 24.8625 25.7488 24.78 25.8038 24.675C25.8638 24.57 25.8938 24.4325 25.8938 24.2625C25.8938 24.0925 25.8638 23.955 25.8038 23.85C25.7488 23.745 25.6738 23.665 25.5788 23.61C25.4838 23.55 25.3738 23.51 25.2488 23.49C25.1238 23.47 24.9938 23.46 24.8588 23.46H23.9438V25.065ZM22.7663 22.545H25.1813C25.5163 22.545 25.8013 22.595 26.0363 22.695C26.2713 22.79 26.4613 22.9175 26.6063 23.0775C26.7563 23.2375 26.8638 23.42 26.9288 23.625C26.9988 23.83 27.0338 24.0425 27.0338 24.2625C27.0338 24.4775 26.9988 24.69 26.9288 24.9C26.8638 25.105 26.7563 25.2875 26.6063 25.4475C26.4613 25.6075 26.2713 25.7375 26.0363 25.8375C25.8013 25.9325 25.5163 25.98 25.1813 25.98H23.9438V27.9H22.7663V22.545Z" fill="white"/>
<path d="M16.2 63.3H18V65.4H12V63.3H13.5V39H16.2V63.3Z" fill="#D0D0D0"/>
</svg>
