<svg width="20" height="16" viewBox="0 0 20 16" fill="none" xmlns="http://www.w3.org/2000/svg">
<path d="M18.374 0.0390625C18.6038 -0.0365933 18.857 -5.28021e-05 19.0527 0.134766C19.2478 0.269181 19.3602 0.48234 19.3604 0.706055V13.1699C19.3603 13.4661 19.1643 13.7377 18.8604 13.8379L12.6963 15.8672C12.5358 15.92 12.361 15.9191 12.2012 15.8643L6.63574 13.9502C6.58266 13.9319 6.52468 13.9317 6.47168 13.9502L0.999023 15.8633C0.76847 15.9437 0.511393 15.9097 0.3125 15.7754C0.114476 15.6414 0 15.4256 0 15.1992V2.99609L0.00292969 2.92188C0.0278438 2.65882 0.207644 2.42342 0.478516 2.3252L6.28711 0.223633C6.44659 0.165981 6.62249 0.162163 6.78418 0.212891L12.3701 1.96582C12.42 1.98147 12.4738 1.98119 12.5234 1.96484L18.374 0.0390625ZM17.5459 1.80664L13.3682 3.18262C13.2657 3.21637 13.1963 3.31201 13.1963 3.41992V13.8613C13.1963 13.9415 13.2348 14.0165 13.2998 14.0635C13.3648 14.1105 13.4482 14.1237 13.5244 14.0986L17.7021 12.7227C17.8047 12.6889 17.874 12.5933 17.874 12.4854V2.04395C17.874 1.96375 17.8355 1.8888 17.7705 1.8418C17.7055 1.79484 17.622 1.78157 17.5459 1.80664ZM7.61914 1.96289C7.54328 1.93909 7.46061 1.95301 7.39648 2C7.33244 2.04703 7.29407 2.12173 7.29395 2.20117V12.4951C7.29395 12.6018 7.362 12.6967 7.46289 12.7314L11.3789 14.0781C11.4553 14.1044 11.5397 14.0928 11.6055 14.0459C11.6712 13.999 11.71 13.9226 11.71 13.8418V3.43066C11.7099 3.32157 11.6392 3.2252 11.5352 3.19238L7.61914 1.96289ZM5.47266 2.03027L1.65137 3.41309C1.55242 3.44889 1.48639 3.54323 1.48633 3.64844V13.834C1.48635 13.915 1.52577 13.9912 1.5918 14.0381C1.65771 14.0847 1.74214 14.0969 1.81836 14.0703L5.64062 12.7344C5.74094 12.6993 5.80859 12.6043 5.80859 12.498V2.26562C5.80857 2.1842 5.76879 2.10733 5.70215 2.06055C5.63545 2.01376 5.54927 2.00256 5.47266 2.03027Z" fill="black"/>
</svg>
