<svg width="13" height="12" viewBox="0 0 13 12" fill="none" xmlns="http://www.w3.org/2000/svg">
<path d="M11.0471 11.2559C11.0468 11.3536 10.8689 11.4989 10.7659 11.5107C10.5946 11.5306 10.1033 11.5324 9.93579 11.5088C9.85414 11.4973 9.70661 11.3847 9.7063 11.3096V10.3301H11.0471V11.2559ZM2.83813 11.1484C2.8378 11.2571 2.65209 11.4658 2.54419 11.498C2.44904 11.5259 1.8922 11.5238 1.79126 11.498C1.69026 11.4719 1.49766 11.2613 1.49731 11.1758V10.3311H2.83813V11.1484ZM11.2747 8.9375C11.4107 8.95915 11.4527 9.07713 11.47 9.19727C11.4941 9.36597 11.5017 9.96212 11.4094 10.0889C11.3713 10.1409 11.2863 10.1782 11.2229 10.1826L1.27075 10.168C1.1326 10.1475 1.08107 10.0108 1.06763 9.8877C1.04885 9.71815 1.04684 9.16511 1.12622 9.03418C1.14607 9.00092 1.18393 8.95229 1.22095 8.94141L11.2747 8.9375ZM2.55884 0.0283203C5.02065 -0.0496192 7.5371 0.0603399 10.0081 0.0625C10.6397 0.20226 11.265 0.568955 11.4446 1.22852C11.5214 3.59096 11.4546 5.96529 11.4788 8.33203C11.4535 8.67982 11.3654 8.76464 11.009 8.77539C10.8905 8.77909 10.7955 8.74627 10.6877 8.74512C7.72698 8.71663 4.73644 8.70883 1.78052 8.77441C1.63434 8.77765 1.43483 8.78838 1.29517 8.77441C1.18266 8.76364 1.14203 8.72557 1.10181 8.62012C1.02924 6.22269 1.08541 3.8133 1.07251 1.41211C1.19034 0.551774 1.80703 0.299517 2.53638 0.0732422C2.54406 0.0696002 2.54434 0.0294896 2.55884 0.0283203ZM1.94556 7.27734C1.78647 7.31005 1.78811 7.47321 1.79614 7.60352C1.81281 7.87605 1.90586 8.252 2.21118 8.31543C2.5165 8.37881 3.10452 8.42784 3.41626 8.39941C3.59472 8.38329 3.73342 8.24272 3.63989 8.06641C3.55427 7.90467 2.62525 7.50722 2.40845 7.4209C2.30309 7.37897 2.03963 7.25799 1.94556 7.27734ZM10.4778 7.27734C10.3354 7.30421 9.97851 7.46952 9.82251 7.53516C9.60601 7.62541 8.92132 7.90829 8.82446 8.09375C8.77662 8.18621 8.80785 8.28066 8.88794 8.3457C8.98875 8.42715 9.35932 8.40534 9.5061 8.39941C9.6722 8.39296 10.357 8.33345 10.4651 8.26465C10.4963 8.24447 10.6099 8.11126 10.6292 8.07324C10.7006 7.93373 10.8076 7.44866 10.6917 7.33301C10.6481 7.28948 10.5396 7.26553 10.4778 7.27734ZM1.73853 6.49414C1.80024 6.48671 1.80478 6.55556 1.84399 6.58887C1.93583 6.66779 2.05537 6.73301 2.17993 6.73633H10.552C10.631 6.76589 10.8323 6.6143 10.8323 6.56055V2.92578H1.73853V6.49414ZM12.3225 3.0332C12.3805 3.0333 12.5109 3.19335 12.5217 3.2627C12.5577 3.49105 12.5472 4.19737 12.5247 4.44238C12.5182 4.51106 12.5118 4.57095 12.47 4.62891C12.442 4.6681 12.3054 4.74989 12.2688 4.75H11.679L11.6389 4.70898V3.07324L11.679 3.0332H12.3225ZM0.87915 4.74902H0.275635C0.238623 4.74855 0.102321 4.66802 0.0744629 4.62891C0.0326697 4.57098 0.0262095 4.51047 0.0197754 4.44238C-0.00385466 4.18729 -0.0106492 3.53523 0.0236816 3.29102C0.0349509 3.20998 0.142965 3.03364 0.221924 3.0332H0.87915V4.74902ZM2.20728 1.39648C2.1016 1.34874 1.74 1.62576 1.73853 1.67871V2.6582H10.8333V1.59863C10.8333 1.50886 10.5924 1.37606 10.4983 1.39648H2.20728Z" fill="white"/>
</svg>
