<svg width="18" height="20" viewBox="0 0 18 20" fill="none" xmlns="http://www.w3.org/2000/svg">
<g clip-path="url(#clip0_322_563)">
<path d="M7.03859 0H10.0968L11.4137 5.05074L11.9939 7.27492L13.3831 12.6037L13.9502 14.7815L14.9168 18.4885H2.35855L3.29734 14.7815L3.87192 12.511L5.19716 7.27492L5.76062 5.05074L7.03859 0Z" fill="#FF863D"/>
<path d="M7.03859 0L2.35855 18.4885H7.03859L8.19702 0H7.03859Z" fill="#FF7927"/>
<path d="M3.88491 12.4521H13.3525L13.9623 14.7227H3.31033L3.88491 12.4521Z" fill="#E5E9F5"/>
<path d="M7.41672 12.4521L7.27401 14.7227H3.31033L3.88491 12.4521H7.41672Z" fill="#C8CFE0"/>
<path d="M5.76155 5.05469H11.4147L11.9948 7.27887H5.19809L5.76155 5.05469Z" fill="#E5E9F5"/>
<path d="M7.88007 5.05469L7.74106 7.27887H5.19623L5.75876 5.05469H7.88007Z" fill="#C8CFE0"/>
<path d="M6.7337 18.4883H0.518975C0.232353 18.4883 0 18.7206 0 19.0073V19.4808C0 19.7674 0.232353 19.9998 0.518975 19.9998H6.7337C7.02032 19.9998 7.25268 19.7674 7.25268 19.4808V19.0073C7.25268 18.7206 7.02032 18.4883 6.7337 18.4883Z" fill="#E96C20"/>
<path d="M16.6341 18.4883H6.86065C6.57403 18.4883 6.34167 18.7206 6.34167 19.0073V19.4808C6.34167 19.7674 6.57403 19.9998 6.86065 19.9998H16.6341C16.9207 19.9998 17.153 19.7674 17.153 19.4808V19.0073C17.153 18.7206 16.9207 18.4883 16.6341 18.4883Z" fill="#FF7927"/>
</g>
<defs>
<clipPath id="clip0_322_563">
<rect width="17.1531" height="20" fill="white"/>
</clipPath>
</defs>
</svg>
