<svg width="26" height="26" viewBox="0 0 26 26" fill="none" xmlns="http://www.w3.org/2000/svg">
<path d="M25.3438 22.5453L19.8438 24.5591C19.1913 24.798 18.5 24.315 18.5 23.62V3.22076C18.5 2.79033 18.7754 2.40819 19.1838 2.27208L24.6838 0.438743C25.3313 0.222899 26 0.704871 26 1.38743V21.6062C26 22.0259 25.7379 22.401 25.3438 22.5453Z" fill="white"/>
<path d="M9.65618 22.5453L15.1562 24.5591C15.8087 24.798 16.5 24.315 16.5 23.62V3.22076C16.5 2.79033 16.2246 2.40819 15.8162 2.27208L10.3162 0.438743C9.6687 0.222899 9 0.704871 9 1.38743V21.6062C9 22.0259 9.26207 22.401 9.65618 22.5453Z" fill="white"/>
<path d="M6.84382 22.5453L1.34382 24.5591C0.691286 24.798 0 24.315 0 23.62V3.22076C0 2.79033 0.27543 2.40819 0.683772 2.27208L6.18377 0.438743C6.8313 0.222899 7.5 0.704871 7.5 1.38743V21.6062C7.5 22.0259 7.23793 22.401 6.84382 22.5453Z" fill="white"/>
</svg>
