<svg width="50" height="45" viewBox="0 0 50 45" fill="none" xmlns="http://www.w3.org/2000/svg">
<path d="M14.875 23.3141C5.55591 14.1229 13.1802 -1.38364 26.246 0.0990812C35.0029 1.09318 40.495 10.1499 37.4792 18.334C34.072 27.5785 21.954 30.2965 14.875 23.3141ZM35.7154 18.6821C40.1577 9.07757 30.8626 -1.18593 20.699 2.08168C12.1626 4.82605 9.4257 15.627 15.673 22.0523C21.6777 28.2281 32.1295 26.4341 35.7154 18.6821ZM26.2211 9.49702C28.0498 7.5272 31.4969 7.72223 32.6838 10.2578C33.4328 11.8576 33.1084 16.187 33.1084 18.1341C33.1085 18.4193 33.1905 18.7218 33.1108 19.042H29.632V12.5332C29.632 12.4457 29.4302 11.8145 29.3739 11.7101C28.8828 10.8185 27.5598 10.8226 26.9049 11.522C26.6341 11.8107 26.2912 12.5473 26.2912 12.9378V19.042H22.8125V12.6003C22.8122 12.4735 22.585 11.8247 22.508 11.6866C21.9841 10.7461 20.5621 10.839 19.9474 11.656C19.8035 11.8474 19.4696 12.5943 19.4693 12.8025V19.0079C19.469 19.1775 19.068 19.0411 18.9603 19.0384C18.0901 19.0155 16.9848 19.14 16.1582 19.0443C16.0586 19.0328 15.9828 19.0361 15.9227 18.9396V8.55393C15.9227 8.36914 16.4379 8.53043 16.5709 8.52571C17.3866 8.49937 18.2778 8.3542 19.0982 8.44928C19.1975 8.46067 19.2738 8.45656 19.3337 8.55276V9.93564L19.3325 9.93682C19.5924 9.87544 19.6156 9.59853 19.7821 9.40295C21.1299 7.81751 23.9793 7.76034 25.3695 9.32887C25.478 9.45094 25.7432 9.9272 25.7786 9.93799C25.9607 9.99436 26.1024 9.62378 26.2211 9.49702Z" fill="#ECECEC"/>
<path d="M3.48113 41.105H5.27113C5.3778 41.105 5.5278 41.1017 5.72113 41.095C5.91447 41.0883 6.11113 41.055 6.31113 40.995C6.51113 40.9283 6.6878 40.8183 6.84113 40.665C7.00113 40.5117 7.09447 40.2883 7.12113 39.995C7.1278 39.9083 7.12447 39.8017 7.11113 39.675C7.10447 39.5483 7.0578 39.425 6.97113 39.305C6.89113 39.185 6.76113 39.085 6.58113 39.005C6.4078 38.9183 6.16113 38.875 5.84113 38.875H3.95113L3.48113 41.105ZM4.13113 37.975H6.00113C6.3078 37.975 6.55447 37.935 6.74113 37.855C6.9278 37.775 7.07113 37.6783 7.17113 37.565C7.27113 37.445 7.3378 37.3217 7.37113 37.195C7.40447 37.0617 7.42113 36.9483 7.42113 36.855C7.42113 36.7817 7.41113 36.6983 7.39113 36.605C7.37113 36.505 7.32447 36.4117 7.25113 36.325C7.1778 36.2317 7.0678 36.155 6.92113 36.095C6.77447 36.035 6.57447 36.005 6.32113 36.005H4.54113L4.13113 37.975ZM3.50113 34.985H6.58113C7.05447 34.985 7.4278 35.0483 7.70113 35.175C7.98113 35.3017 8.19113 35.4517 8.33113 35.625C8.4778 35.7983 8.57113 35.9817 8.61113 36.175C8.65113 36.3683 8.67113 36.5283 8.67113 36.655C8.67113 36.8683 8.6378 37.0717 8.57113 37.265C8.51113 37.4517 8.42113 37.6217 8.30113 37.775C8.18113 37.9283 8.03447 38.055 7.86113 38.155C7.69447 38.255 7.5078 38.3217 7.30113 38.355V38.375C8.01447 38.6017 8.37113 39.1017 8.37113 39.875C8.37113 40.0617 8.33447 40.285 8.26113 40.545C8.1878 40.7983 8.05113 41.045 7.85113 41.285C7.6578 41.5183 7.38447 41.7183 7.03113 41.885C6.68447 42.045 6.2378 42.125 5.69113 42.125H2.02113L3.50113 34.985ZM10.5421 38.235H12.3721C12.9121 38.235 13.3221 38.125 13.6021 37.905C13.8888 37.6783 14.0321 37.355 14.0321 36.935C14.0321 36.7417 13.9955 36.585 13.9221 36.465C13.8555 36.3383 13.7621 36.2417 13.6421 36.175C13.5221 36.1083 13.3855 36.065 13.2321 36.045C13.0788 36.0183 12.9188 36.005 12.7521 36.005H11.0021L10.5421 38.235ZM9.94215 34.985H13.0321C13.1855 34.985 13.3888 34.9983 13.6421 35.025C13.8955 35.0517 14.1421 35.125 14.3821 35.245C14.6288 35.365 14.8388 35.5483 15.0121 35.795C15.1921 36.035 15.2821 36.3717 15.2821 36.805C15.2821 37.3717 15.1388 37.815 14.8521 38.135C14.5655 38.4483 14.1688 38.6517 13.6621 38.745V38.765C13.9621 38.8783 14.1621 39.0483 14.2621 39.275C14.3688 39.495 14.4221 39.755 14.4221 40.055C14.4221 40.3017 14.4021 40.5483 14.3621 40.795C14.3221 41.0417 14.3055 41.2883 14.3121 41.535C14.3121 41.635 14.3188 41.735 14.3321 41.835C14.3521 41.935 14.3888 42.0317 14.4421 42.125H13.1321C13.0988 42.0317 13.0755 41.9417 13.0621 41.855C13.0555 41.7683 13.0521 41.675 13.0521 41.575C13.0521 41.3083 13.0721 41.0483 13.1121 40.795C13.1521 40.535 13.1721 40.275 13.1721 40.015C13.1721 39.8083 13.1321 39.6483 13.0521 39.535C12.9788 39.4217 12.8788 39.3417 12.7521 39.295C12.6255 39.2417 12.4821 39.2117 12.3221 39.205C12.1621 39.1917 11.9988 39.185 11.8321 39.185H10.3421L9.73215 42.125H8.46215L9.94215 34.985ZM15.5074 34.985H21.3874L21.1574 36.065H18.8874L17.6274 42.125H16.3774L17.6374 36.065H15.2874L15.5074 34.985ZM23.9883 39.755C23.9883 39.995 24.0317 40.1983 24.1183 40.365C24.205 40.5317 24.3183 40.6683 24.4583 40.775C24.605 40.875 24.775 40.9517 24.9683 41.005C25.1617 41.0517 25.3617 41.075 25.5683 41.075C25.7083 41.075 25.8583 41.065 26.0183 41.045C26.1783 41.0183 26.3283 40.9717 26.4683 40.905C26.6083 40.8383 26.725 40.7483 26.8183 40.635C26.9117 40.515 26.9583 40.365 26.9583 40.185C26.9583 39.9917 26.895 39.835 26.7683 39.715C26.6483 39.595 26.4883 39.495 26.2883 39.415C26.0883 39.335 25.8617 39.265 25.6083 39.205C25.355 39.145 25.0983 39.0783 24.8383 39.005C24.5717 38.9383 24.3117 38.8583 24.0583 38.765C23.805 38.665 23.5783 38.5383 23.3783 38.385C23.1783 38.2317 23.015 38.0417 22.8883 37.815C22.7683 37.5817 22.7083 37.3017 22.7083 36.975C22.7083 36.6083 22.785 36.2917 22.9383 36.025C23.0983 35.7517 23.305 35.525 23.5583 35.345C23.8117 35.165 24.0983 35.0317 24.4183 34.945C24.7383 34.8583 25.0583 34.815 25.3783 34.815C25.7517 34.815 26.1083 34.8583 26.4483 34.945C26.795 35.025 27.1017 35.1583 27.3683 35.345C27.635 35.5317 27.845 35.7717 27.9983 36.065C28.1583 36.3517 28.2383 36.7017 28.2383 37.115H26.7183C26.705 36.9017 26.6583 36.725 26.5783 36.585C26.505 36.445 26.405 36.335 26.2783 36.255C26.1517 36.175 26.005 36.1183 25.8383 36.085C25.6783 36.0517 25.5017 36.035 25.3083 36.035C25.1817 36.035 25.055 36.0483 24.9283 36.075C24.8017 36.1017 24.685 36.1483 24.5783 36.215C24.4783 36.2817 24.395 36.365 24.3283 36.465C24.2617 36.565 24.2283 36.6917 24.2283 36.845C24.2283 36.985 24.255 37.0983 24.3083 37.185C24.3617 37.2717 24.465 37.3517 24.6183 37.425C24.7783 37.4983 24.995 37.5717 25.2683 37.645C25.5483 37.7183 25.9117 37.8117 26.3583 37.925C26.4917 37.9517 26.675 38.0017 26.9083 38.075C27.1483 38.1417 27.385 38.2517 27.6183 38.405C27.8517 38.5583 28.0517 38.765 28.2183 39.025C28.3917 39.2783 28.4783 39.605 28.4783 40.005C28.4783 40.3317 28.415 40.635 28.2883 40.915C28.1617 41.195 27.9717 41.4383 27.7183 41.645C27.4717 41.845 27.1617 42.0017 26.7883 42.115C26.4217 42.2283 25.995 42.285 25.5083 42.285C25.115 42.285 24.7317 42.235 24.3583 42.135C23.9917 42.0417 23.665 41.8917 23.3783 41.685C23.0983 41.4783 22.875 41.215 22.7083 40.895C22.5417 40.575 22.4617 40.195 22.4683 39.755H23.9883ZM30.3925 36.305H28.2525V34.985H34.1025V36.305H31.9625V42.125H30.3925V36.305ZM35.5857 38.585C35.5857 38.885 35.6191 39.1783 35.6857 39.465C35.7591 39.745 35.8724 39.9983 36.0257 40.225C36.1791 40.4517 36.3791 40.635 36.6257 40.775C36.8724 40.9083 37.1724 40.975 37.5257 40.975C37.8791 40.975 38.1791 40.9083 38.4257 40.775C38.6724 40.635 38.8724 40.4517 39.0257 40.225C39.1791 39.9983 39.2891 39.745 39.3557 39.465C39.4291 39.1783 39.4657 38.885 39.4657 38.585C39.4657 38.2717 39.4291 37.9683 39.3557 37.675C39.2891 37.3817 39.1791 37.1217 39.0257 36.895C38.8724 36.6617 38.6724 36.4783 38.4257 36.345C38.1791 36.205 37.8791 36.135 37.5257 36.135C37.1724 36.135 36.8724 36.205 36.6257 36.345C36.3791 36.4783 36.1791 36.6617 36.0257 36.895C35.8724 37.1217 35.7591 37.3817 35.6857 37.675C35.6191 37.9683 35.5857 38.2717 35.5857 38.585ZM34.0157 38.585C34.0157 38.0517 34.0957 37.5583 34.2557 37.105C34.4157 36.645 34.6457 36.245 34.9457 35.905C35.2457 35.565 35.6124 35.2983 36.0457 35.105C36.4857 34.9117 36.9791 34.815 37.5257 34.815C38.0791 34.815 38.5724 34.9117 39.0057 35.105C39.4391 35.2983 39.8057 35.565 40.1057 35.905C40.4057 36.245 40.6357 36.645 40.7957 37.105C40.9557 37.5583 41.0357 38.0517 41.0357 38.585C41.0357 39.105 40.9557 39.5917 40.7957 40.045C40.6357 40.4917 40.4057 40.8817 40.1057 41.215C39.8057 41.5483 39.4391 41.8117 39.0057 42.005C38.5724 42.1917 38.0791 42.285 37.5257 42.285C36.9791 42.285 36.4857 42.1917 36.0457 42.005C35.6124 41.8117 35.2457 41.5483 34.9457 41.215C34.6457 40.8817 34.4157 40.4917 34.2557 40.045C34.0957 39.5917 34.0157 39.105 34.0157 38.585ZM43.0789 38.345H44.2989C44.4789 38.345 44.6523 38.3317 44.8189 38.305C44.9856 38.2783 45.1323 38.2283 45.2589 38.155C45.3856 38.075 45.4856 37.965 45.5589 37.825C45.6389 37.685 45.6789 37.5017 45.6789 37.275C45.6789 37.0483 45.6389 36.865 45.5589 36.725C45.4856 36.585 45.3856 36.4783 45.2589 36.405C45.1323 36.325 44.9856 36.2717 44.8189 36.245C44.6523 36.2183 44.4789 36.205 44.2989 36.205H43.0789V38.345ZM41.5089 34.985H44.7289C45.1756 34.985 45.5556 35.0517 45.8689 35.185C46.1823 35.3117 46.4356 35.4817 46.6289 35.695C46.8289 35.9083 46.9723 36.1517 47.0589 36.425C47.1523 36.6983 47.1989 36.9817 47.1989 37.275C47.1989 37.5617 47.1523 37.845 47.0589 38.125C46.9723 38.3983 46.8289 38.6417 46.6289 38.855C46.4356 39.0683 46.1823 39.2417 45.8689 39.375C45.5556 39.5017 45.1756 39.565 44.7289 39.565H43.0789V42.125H41.5089V34.985Z" fill="white"/>
</svg>
