<svg width="30" height="29" viewBox="0 0 30 29" fill="none" xmlns="http://www.w3.org/2000/svg">
<path d="M14.9995 0C15.7985 0 16.5074 0.519593 16.7544 1.28711L19.4448 9.65332H28.1548C28.9537 9.65332 29.6627 10.1739 29.9096 10.9414C30.1563 11.7087 29.8858 12.5491 29.2397 13.0234L22.1928 18.1943L24.8842 26.5625C25.1309 27.3299 24.8606 28.1703 24.2143 28.6445C23.5679 29.1188 22.6927 29.1188 22.0464 28.6445L14.9995 23.4736L7.95261 28.6445C7.30635 29.1185 6.43187 29.1185 5.78561 28.6445C5.13935 28.1702 4.86902 27.3299 5.11569 26.5625L7.80612 18.1943L0.760223 13.0234C0.114013 12.5491 -0.156418 11.7088 0.0903015 10.9414C0.337266 10.174 1.04533 9.65339 1.84421 9.65332H10.5542L13.2456 1.28711L13.2973 1.14648C13.5815 0.457213 14.2506 0.000124773 14.9995 0Z" fill="white"/>
</svg>
