<svg width="23" height="23" viewBox="0 0 23 23" fill="none" xmlns="http://www.w3.org/2000/svg">
<rect width="23" height="23" rx="11" fill="#EE3325"/>
<path d="M16.0471 17.5746C16.0471 17.6751 15.8691 17.8251 15.7659 17.8373C15.5948 17.8577 15.1034 17.8596 14.9358 17.8353C14.8542 17.8236 14.7065 17.7075 14.7063 17.6302V16.6234H16.0471V17.5746ZM7.83816 17.4642C7.83816 17.5758 7.65223 17.7903 7.54422 17.8236C7.44965 17.8523 6.8923 17.8501 6.79129 17.8236C6.6902 17.7968 6.49734 17.5803 6.49734 17.4925V16.6244H7.83816V17.4642ZM16.2737 15.1898C16.4102 15.2119 16.4528 15.3336 16.47 15.4574C16.4942 15.6313 16.5009 16.2436 16.4085 16.3734C16.3703 16.427 16.2854 16.4657 16.222 16.4701L6.2698 16.4545C6.13222 16.4332 6.08115 16.2936 6.06765 16.1673C6.04884 15.9933 6.04577 15.4229 6.12527 15.2884C6.14516 15.2542 6.18388 15.2048 6.22097 15.1937L16.2737 15.1898ZM7.55887 6.02867C10.0207 5.94853 12.5371 6.06161 15.0081 6.06383C15.6397 6.20754 16.2651 6.58482 16.4446 7.26305C16.5215 9.69238 16.4546 12.134 16.4788 14.5677C16.4535 14.9253 16.3654 15.0118 16.0091 15.0228C15.8903 15.0266 15.7948 14.9936 15.6868 14.9925C12.7262 14.9632 9.73631 14.9554 6.78055 15.0228C6.63436 15.0261 6.43488 15.0372 6.29519 15.0228C6.18245 15.0117 6.14115 14.9724 6.10086 14.8636C6.02829 12.3985 6.08543 9.92152 6.07254 7.4525C6.19026 6.56755 6.80696 6.30825 7.5364 6.07555C7.5442 6.07211 7.54421 6.02971 7.55887 6.02867ZM6.94558 13.4828C6.78627 13.5164 6.78812 13.6846 6.79617 13.8187C6.81283 14.099 6.90589 14.4849 7.21121 14.5502C7.51655 14.6153 8.10456 14.6663 8.41629 14.6371C8.59475 14.6205 8.73345 14.4756 8.63992 14.2943C8.55405 14.1279 7.62511 13.7189 7.40847 13.6302C7.30312 13.5871 7.03965 13.4629 6.94558 13.4828ZM15.4778 13.4828C15.3354 13.5104 14.9785 13.6809 14.8225 13.7484C14.606 13.8412 13.9213 14.1319 13.8245 14.3226C13.7766 14.4177 13.8079 14.5145 13.888 14.5814C13.9887 14.6652 14.3594 14.6432 14.5061 14.6371C14.6722 14.6304 15.3571 14.5692 15.4651 14.4984C15.4962 14.4777 15.6096 14.3415 15.6292 14.3021C15.7006 14.159 15.8075 13.6596 15.6917 13.5404C15.6482 13.4957 15.5397 13.4707 15.4778 13.4828ZM6.73855 12.6771C6.80012 12.6696 6.80485 12.7405 6.84402 12.7748C6.93588 12.856 7.05533 12.9227 7.17996 12.9261H15.552C15.631 12.9565 15.8322 12.8018 15.8323 12.7464V9.00914H6.73855V12.6771ZM5.87918 10.8832H5.27566C5.23873 10.8828 5.10236 10.7994 5.07449 10.7591C5.03267 10.6995 5.02625 10.6369 5.0198 10.5668C4.99619 10.3041 4.98934 9.63391 5.02371 9.38316C5.03498 9.29982 5.14299 9.11889 5.22195 9.11852H5.87918V10.8832ZM17.3225 9.11852C17.3806 9.11922 17.5106 9.28251 17.5218 9.35387C17.5577 9.58859 17.5463 10.3145 17.5237 10.5668C17.5173 10.6374 17.5118 10.6995 17.47 10.7591C17.4422 10.7993 17.3059 10.8826 17.2688 10.8832H16.678L16.638 10.8421V9.15953L16.678 9.11852H17.3225ZM7.2073 7.4359C7.10166 7.38682 6.74027 7.67135 6.73855 7.72594V8.73375H15.8333V7.64391C15.8333 7.5516 15.5924 7.41489 15.4983 7.4359H7.2073Z" fill="white"/>
</svg>
