<svg width="7" height="13" viewBox="0 0 7 13" fill="none" xmlns="http://www.w3.org/2000/svg">
<mask id="path-1-inside-1_89_1914" fill="white">
<path d="M4.31543 5.2085C5.42 5.2085 6.31543 6.10393 6.31543 7.2085V10.4995C6.31543 11.6041 5.42 12.4995 4.31543 12.4995H2C0.895431 12.4995 0 11.6041 0 10.4995V7.2085C0 6.10393 0.895431 5.2085 2 5.2085H4.31543Z"/>
</mask>
<path d="M4.31543 5.2085C5.42 5.2085 6.31543 6.10393 6.31543 7.2085V10.4995C6.31543 11.6041 5.42 12.4995 4.31543 12.4995H2C0.895431 12.4995 0 11.6041 0 10.4995V7.2085C0 6.10393 0.895431 5.2085 2 5.2085H4.31543Z" fill="black"/>
<path d="M2 5.2085V5.0085V5.2085ZM4.31543 5.2085V5.4085C5.30954 5.4085 6.11543 6.21438 6.11543 7.2085H6.31543H6.51543C6.51543 5.99347 5.53046 5.0085 4.31543 5.0085V5.2085ZM6.31543 7.2085H6.11543V10.4995H6.31543H6.51543V7.2085H6.31543ZM6.31543 10.4995H6.11543C6.11543 11.4936 5.30954 12.2995 4.31543 12.2995V12.4995V12.6995C5.53046 12.6995 6.51543 11.7145 6.51543 10.4995H6.31543ZM4.31543 12.4995V12.2995H2V12.4995V12.6995H4.31543V12.4995ZM2 12.4995V12.2995C1.00589 12.2995 0.2 11.4936 0.2 10.4995H0H-0.2C-0.2 11.7145 0.784974 12.6995 2 12.6995V12.4995ZM0 10.4995H0.2V7.2085H0H-0.2V10.4995H0ZM0 7.2085H0.2C0.2 6.21438 1.00589 5.4085 2 5.4085V5.2085V5.0085C0.784974 5.0085 -0.2 5.99347 -0.2 7.2085H0ZM2 5.2085V5.4085H4.31543V5.2085V5.0085H2V5.2085Z" fill="#8D8D8D" mask="url(#path-1-inside-1_89_1914)"/>
<path d="M3.1582 0.0996094C4.26646 0.0997192 5.16291 0.988845 5.16309 2.08301C5.16309 3.17732 4.26657 4.0663 3.1582 4.06641C2.04974 4.06641 1.15234 3.17739 1.15234 2.08301C1.15252 0.988777 2.04985 0.0996094 3.1582 0.0996094Z" fill="black" stroke="#8D8D8D" stroke-width="0.2"/>
</svg>
