<svg width="13" height="12" viewBox="0 0 13 12" fill="none" xmlns="http://www.w3.org/2000/svg">
<path d="M11.0469 11.5752C11.0466 11.6757 10.8687 11.8257 10.7656 11.8379C10.5943 11.8583 10.103 11.8592 9.93555 11.835C9.85379 11.823 9.70605 11.7071 9.70605 11.6299V10.624H11.0469V11.5752ZM2.83789 11.4648C2.83748 11.5766 2.65182 11.7911 2.54395 11.8242C2.44886 11.8529 1.89197 11.8507 1.79102 11.8242C1.68992 11.7973 1.49707 11.5799 1.49707 11.4922V10.624H2.83789V11.4648ZM11.2734 9.18945C11.4099 9.21155 11.4525 9.33328 11.4697 9.45703C11.4939 9.63058 11.5016 10.2441 11.4092 10.374C11.3711 10.4275 11.286 10.4661 11.2227 10.4707L1.27051 10.4551C1.13236 10.4341 1.08082 10.2936 1.06738 10.167C1.04858 9.99291 1.04649 9.42359 1.12598 9.28906C1.14587 9.25479 1.18361 9.20441 1.2207 9.19336L11.2734 9.18945ZM2.55859 0.0292969C5.02037 -0.0508468 7.53689 0.0612525 10.0078 0.0634766C10.6394 0.207191 11.2648 0.58545 11.4443 1.26367C11.5212 3.69271 11.4543 6.13392 11.4785 8.56738C11.4533 8.92501 11.3652 9.01238 11.0088 9.02344C10.8903 9.02722 10.7953 8.99433 10.6875 8.99316C7.72674 8.96387 4.7362 8.95503 1.78027 9.02246C1.6341 9.02579 1.43455 9.03682 1.29492 9.02246C1.18233 9.01135 1.14183 8.97205 1.10156 8.86328C1.02901 6.3981 1.08517 3.9212 1.07227 1.45215C1.19003 0.567307 1.80673 0.307891 2.53613 0.0751953C2.54387 0.0716938 2.54417 0.0307266 2.55859 0.0292969ZM1.94531 7.48242H1.94629C1.78629 7.51555 1.78786 7.68412 1.7959 7.81836C1.81256 8.0986 1.90562 8.48556 2.21094 8.55078C2.51619 8.61595 3.10421 8.6669 3.41602 8.6377C3.59441 8.62112 3.73298 8.47613 3.63965 8.29492C3.55418 8.12855 2.62432 7.71834 2.4082 7.62988C2.30285 7.58677 2.03938 7.46252 1.94531 7.48242ZM10.4775 7.48242C10.3351 7.51006 9.97815 7.68159 9.82227 7.74902C9.60548 7.84195 8.92042 8.13259 8.82422 8.32324C8.77651 8.41826 8.80765 8.51519 8.8877 8.58203C8.98861 8.66567 9.35903 8.64379 9.50586 8.6377C9.67196 8.63106 10.3568 8.56978 10.4648 8.49902C10.4955 8.4791 10.6096 8.341 10.6289 8.30176C10.7004 8.15852 10.8075 7.65886 10.6914 7.54004L10.6475 7.51074C10.5959 7.48555 10.5238 7.47335 10.4775 7.48242ZM1.73828 6.67773C1.7999 6.67003 1.80483 6.74004 1.84375 6.77441C1.93557 6.85558 2.05512 6.92331 2.17969 6.92676H10.5518C10.6308 6.95716 10.832 6.80137 10.832 6.74609V3.00879H1.73828V6.67773ZM0.878906 4.88281H0.275391C0.238241 4.88215 0.102252 4.79999 0.0742188 4.75977C0.0323504 4.70015 0.0269481 4.63747 0.0205078 4.56738C-0.00313357 4.30494 -0.01095 3.63365 0.0234375 3.38281C0.0349859 3.29936 0.142855 3.1188 0.22168 3.11816H0.878906V4.88281ZM12.3223 3.11816C12.3804 3.11854 12.5108 3.2833 12.5215 3.35449C12.5575 3.58935 12.547 4.31545 12.5244 4.56738C12.518 4.63805 12.5116 4.70013 12.4697 4.75977C12.4415 4.8001 12.3054 4.88247 12.2686 4.88281H11.6787L11.6377 4.8418V3.16016L11.6787 3.11816H12.3223ZM2.20703 1.43555C2.10114 1.38635 1.73828 1.67295 1.73828 1.72656V2.7334H10.833V1.64355C10.833 1.55125 10.5921 1.41454 10.498 1.43555H2.20703Z" fill="white"/>
</svg>
