<svg width="47" height="46" viewBox="0 0 47 46" fill="none" xmlns="http://www.w3.org/2000/svg">
<path d="M43.4595 13.6715C43.4593 13.7903 43.2466 13.967 43.1233 13.9814C42.9188 14.0055 42.3308 14.0077 42.1303 13.979C42.0327 13.9652 41.8557 13.8282 41.8554 13.7368V12.5468H43.4595V13.6715ZM33.644 13.5409C33.6438 13.6728 33.4215 13.9266 33.2924 13.9658C33.1786 13.9997 32.5128 13.9971 32.392 13.9658C32.2712 13.9343 32.0404 13.6778 32.0404 13.574V12.5478H33.644V13.5409ZM43.7306 10.8554C43.8938 10.8815 43.9441 11.0249 43.9647 11.1711C43.9936 11.3762 44.0028 12.1005 43.8922 12.2539C43.8466 12.3172 43.745 12.3627 43.6692 12.3679L31.7694 12.3499C31.6043 12.3251 31.5432 12.1592 31.5271 12.0098C31.5046 11.8041 31.5011 11.1305 31.5962 10.9718C31.62 10.9313 31.666 10.8728 31.7104 10.8597L43.7306 10.8554ZM33.3101 0.0338822C36.2538 -0.0607823 39.2625 0.0726911 42.2171 0.0753027C42.9723 0.245057 43.7192 0.690873 43.934 1.49188C44.0259 4.36149 43.9463 7.24569 43.9752 10.1205C43.945 10.5429 43.84 10.6454 43.414 10.6585C43.2719 10.6631 43.158 10.6242 43.0288 10.6229C39.4886 10.5883 35.9135 10.5783 32.3791 10.658C32.2043 10.6619 31.9661 10.6749 31.7991 10.658C31.6641 10.6449 31.6151 10.5985 31.5669 10.4699C31.4802 7.55788 31.5478 4.63215 31.5324 1.71556C31.6732 0.670217 32.4101 0.36383 33.2823 0.0889472C33.292 0.0856825 33.2921 0.0345352 33.3101 0.0338822ZM32.5767 8.83891L32.5772 8.83842C32.3857 8.87766 32.3876 9.07743 32.3973 9.23606C32.4172 9.56704 32.5284 10.0234 32.8933 10.1005C33.2584 10.1776 33.9625 10.2375 34.3353 10.2029C34.5486 10.1832 34.7138 10.012 34.602 9.79792C34.4995 9.60133 33.3876 9.11782 33.1293 9.01336C33.0033 8.96244 32.6892 8.81549 32.5767 8.83891ZM42.7784 8.83891C42.6081 8.87156 42.181 9.07307 41.9946 9.15273C41.7355 9.26245 40.9161 9.6063 40.8011 9.83154C40.744 9.94379 40.7811 10.0581 40.8769 10.1371C40.997 10.2363 41.4409 10.2101 41.6166 10.2029C41.8152 10.195 42.6338 10.1227 42.763 10.0391C42.7998 10.0154 42.9366 9.85302 42.9597 9.80669C43.0452 9.63758 43.1729 9.04703 43.0341 8.90665H43.0336C42.9815 8.85379 42.8523 8.82462 42.7784 8.83891ZM32.3287 7.8877C32.4025 7.8787 32.4084 7.96225 32.4553 8.0027C32.5652 8.0986 32.7078 8.17811 32.8568 8.18203H42.8676C42.9621 8.2179 43.2024 8.03437 43.2024 7.96908V3.55414H32.3287V7.8877ZM31.3021 5.76941H30.5802C30.5364 5.76932 30.3729 5.67089 30.3394 5.62322C30.2893 5.55273 30.2819 5.47901 30.2741 5.39613C30.2459 5.08599 30.2369 4.29304 30.278 3.99661C30.2916 3.89798 30.4215 3.68435 30.5159 3.68425H31.3021V5.76941ZM44.9835 3.68425C45.053 3.68437 45.2091 3.87878 45.2219 3.96298C45.265 4.24066 45.2523 5.09846 45.2253 5.39613C45.2176 5.47966 45.2102 5.55273 45.1601 5.62322C45.1265 5.67089 44.963 5.76931 44.9193 5.76941H44.2136L44.1652 5.72068V3.73298L44.2136 3.68425H44.9835ZM32.889 1.69606C32.7625 1.638 32.3299 1.97539 32.3292 2.03912V3.22911H43.2029V1.94118C43.2026 1.83214 42.9157 1.67126 42.8033 1.69606H32.889Z" fill="white"/>
<path d="M2.34519 11.9795C-2.38824 7.25679 1.48439 -0.710956 8.12091 0.0509108C12.5688 0.561707 15.3584 5.21533 13.8265 9.42057C12.0959 14.1707 5.94086 15.5672 2.34519 11.9795ZM12.9307 9.59942C15.1871 4.66432 10.4658 -0.609364 5.30342 1.06963C0.967479 2.47977 -0.42265 8.02961 2.75053 11.3311C5.80051 14.5044 11.1093 13.5826 12.9307 9.59942ZM8.10822 4.87985C9.0371 3.8677 10.788 3.96791 11.3909 5.27078C11.7713 6.09279 11.6065 8.31738 11.6065 9.31786C11.6066 9.46436 11.6482 9.61981 11.6077 9.78432H9.84075V6.43995C9.84075 6.39495 9.73823 6.07063 9.70967 6.01699C9.46021 5.55886 8.78818 5.56095 8.45557 5.92032C8.31804 6.0687 8.14386 6.44719 8.14386 6.6478V9.78432H6.37689V6.47439C6.37674 6.40927 6.26137 6.0759 6.22225 6.00491C5.95615 5.52168 5.23386 5.5694 4.92164 5.9892C4.84857 6.08757 4.67897 6.47135 4.67879 6.57832V9.76679C4.67864 9.85397 4.47496 9.78389 4.42024 9.7825C3.97824 9.77075 3.41684 9.83469 2.997 9.78552C2.94642 9.77963 2.90788 9.7813 2.87739 9.73175V4.39526C2.87739 4.30031 3.13906 4.38319 3.20662 4.38076C3.62095 4.36723 4.07358 4.29263 4.49032 4.34149C4.54076 4.34734 4.57949 4.34523 4.60993 4.39466V5.10522L4.60932 5.10583C4.74133 5.07429 4.75313 4.93201 4.83767 4.83151C5.52229 4.01687 6.96957 3.98749 7.67569 4.79345C7.73078 4.85617 7.86548 5.10089 7.8835 5.10643C7.97596 5.1354 8.04795 4.94498 8.10822 4.87985Z" fill="white"/>
<rect x="0.25" y="19" width="11" height="13" stroke="white" stroke-width="0.5"/>
<rect x="0.25" y="32" width="11" height="13" stroke="white" stroke-width="0.5"/>
<rect x="11.25" y="19" width="11" height="13" stroke="white" stroke-width="0.5"/>
<rect x="11.25" y="32" width="11" height="13" stroke="white" stroke-width="0.5"/>
<rect x="22.25" y="19" width="12" height="13" stroke="white" stroke-width="0.5"/>
<rect x="22.25" y="32" width="12" height="13" stroke="white" stroke-width="0.5"/>
<rect x="34.25" y="19" width="12" height="13" stroke="white" stroke-width="0.5"/>
<rect x="34.25" y="32" width="12" height="13" stroke="white" stroke-width="0.5"/>
<path d="M4.48949 24.75H6.07949C6.35949 24.75 6.58949 24.6833 6.76949 24.55C6.94949 24.4167 7.03949 24.2 7.03949 23.9C7.03949 23.7333 7.00949 23.5967 6.94949 23.49C6.88949 23.3833 6.80949 23.3 6.70949 23.24C6.60949 23.18 6.49283 23.14 6.35949 23.12C6.23283 23.0933 6.09949 23.08 5.95949 23.08H4.48949V24.75ZM2.91949 21.86H6.27949C6.61949 21.86 6.92949 21.89 7.20949 21.95C7.48949 22.01 7.72949 22.11 7.92949 22.25C8.12949 22.3833 8.28283 22.5633 8.38949 22.79C8.50283 23.0167 8.55949 23.2967 8.55949 23.63C8.55949 23.99 8.47616 24.29 8.30949 24.53C8.14949 24.77 7.90949 24.9667 7.58949 25.12C8.02949 25.2467 8.35616 25.47 8.56949 25.79C8.78949 26.1033 8.89949 26.4833 8.89949 26.93C8.89949 27.29 8.82949 27.6033 8.68949 27.87C8.54949 28.13 8.35949 28.3433 8.11949 28.51C7.88616 28.6767 7.61616 28.8 7.30949 28.88C7.00949 28.96 6.69949 29 6.37949 29H2.91949V21.86ZM4.48949 27.78H6.16949C6.32283 27.78 6.46949 27.7667 6.60949 27.74C6.74949 27.7067 6.87283 27.6567 6.97949 27.59C7.08616 27.5167 7.16949 27.42 7.22949 27.3C7.29616 27.18 7.32949 27.0267 7.32949 26.84C7.32949 26.4733 7.22616 26.2133 7.01949 26.06C6.81283 25.9 6.53949 25.82 6.19949 25.82H4.48949V27.78Z" fill="white"/>
<path d="M4.26293 39.63C4.26293 39.87 4.30626 40.0733 4.39293 40.24C4.4796 40.4067 4.59293 40.5433 4.73293 40.65C4.8796 40.75 5.0496 40.8267 5.24293 40.88C5.43626 40.9267 5.63626 40.95 5.84293 40.95C5.98293 40.95 6.13293 40.94 6.29293 40.92C6.45293 40.8933 6.60293 40.8467 6.74293 40.78C6.88293 40.7133 6.9996 40.6233 7.09293 40.51C7.18626 40.39 7.23293 40.24 7.23293 40.06C7.23293 39.8667 7.1696 39.71 7.04293 39.59C6.92293 39.47 6.76293 39.37 6.56293 39.29C6.36293 39.21 6.13626 39.14 5.88293 39.08C5.6296 39.02 5.37293 38.9533 5.11293 38.88C4.84626 38.8133 4.58626 38.7333 4.33293 38.64C4.0796 38.54 3.85293 38.4133 3.65293 38.26C3.45293 38.1067 3.2896 37.9167 3.16293 37.69C3.04293 37.4567 2.98293 37.1767 2.98293 36.85C2.98293 36.4833 3.0596 36.1667 3.21293 35.9C3.37293 35.6267 3.5796 35.4 3.83293 35.22C4.08626 35.04 4.37293 34.9067 4.69293 34.82C5.01293 34.7333 5.33293 34.69 5.65293 34.69C6.02626 34.69 6.38293 34.7333 6.72293 34.82C7.0696 34.9 7.37626 35.0333 7.64293 35.22C7.9096 35.4067 8.1196 35.6467 8.27293 35.94C8.43293 36.2267 8.51293 36.5767 8.51293 36.99H6.99293C6.9796 36.7767 6.93293 36.6 6.85293 36.46C6.7796 36.32 6.6796 36.21 6.55293 36.13C6.42626 36.05 6.2796 35.9933 6.11293 35.96C5.95293 35.9267 5.77626 35.91 5.58293 35.91C5.45626 35.91 5.3296 35.9233 5.20293 35.95C5.07626 35.9767 4.9596 36.0233 4.85293 36.09C4.75293 36.1567 4.6696 36.24 4.60293 36.34C4.53626 36.44 4.50293 36.5667 4.50293 36.72C4.50293 36.86 4.5296 36.9733 4.58293 37.06C4.63626 37.1467 4.7396 37.2267 4.89293 37.3C5.05293 37.3733 5.2696 37.4467 5.54293 37.52C5.82293 37.5933 6.18626 37.6867 6.63293 37.8C6.76626 37.8267 6.9496 37.8767 7.18293 37.95C7.42293 38.0167 7.6596 38.1267 7.89293 38.28C8.12626 38.4333 8.32626 38.64 8.49293 38.9C8.66626 39.1533 8.75293 39.48 8.75293 39.88C8.75293 40.2067 8.6896 40.51 8.56293 40.79C8.43626 41.07 8.24626 41.3133 7.99293 41.52C7.74626 41.72 7.43626 41.8767 7.06293 41.99C6.69626 42.1033 6.2696 42.16 5.78293 42.16C5.3896 42.16 5.00626 42.11 4.63293 42.01C4.26626 41.9167 3.9396 41.7667 3.65293 41.56C3.37293 41.3533 3.1496 41.09 2.98293 40.77C2.81626 40.45 2.73626 40.07 2.74293 39.63H4.26293Z" fill="white"/>
<path d="M15.9634 36.18H13.8234V34.86H19.6734V36.18H17.5334V42H15.9634V36.18Z" fill="white"/>
<path d="M26.3084 38.46C26.3084 38.76 26.3417 39.0533 26.4084 39.34C26.4817 39.62 26.5951 39.8733 26.7484 40.1C26.9017 40.3267 27.1017 40.51 27.3484 40.65C27.5951 40.7833 27.8951 40.85 28.2484 40.85C28.6017 40.85 28.9017 40.7833 29.1484 40.65C29.3951 40.51 29.5951 40.3267 29.7484 40.1C29.9017 39.8733 30.0117 39.62 30.0784 39.34C30.1517 39.0533 30.1884 38.76 30.1884 38.46C30.1884 38.1467 30.1517 37.8433 30.0784 37.55C30.0117 37.2567 29.9017 36.9967 29.7484 36.77C29.5951 36.5367 29.3951 36.3533 29.1484 36.22C28.9017 36.08 28.6017 36.01 28.2484 36.01C27.8951 36.01 27.5951 36.08 27.3484 36.22C27.1017 36.3533 26.9017 36.5367 26.7484 36.77C26.5951 36.9967 26.4817 37.2567 26.4084 37.55C26.3417 37.8433 26.3084 38.1467 26.3084 38.46ZM24.7384 38.46C24.7384 37.9267 24.8184 37.4333 24.9784 36.98C25.1384 36.52 25.3684 36.12 25.6684 35.78C25.9684 35.44 26.3351 35.1733 26.7684 34.98C27.2084 34.7867 27.7017 34.69 28.2484 34.69C28.8017 34.69 29.2951 34.7867 29.7284 34.98C30.1617 35.1733 30.5284 35.44 30.8284 35.78C31.1284 36.12 31.3584 36.52 31.5184 36.98C31.6784 37.4333 31.7584 37.9267 31.7584 38.46C31.7584 38.98 31.6784 39.4667 31.5184 39.92C31.3584 40.3667 31.1284 40.7567 30.8284 41.09C30.5284 41.4233 30.1617 41.6867 29.7284 41.88C29.2951 42.0667 28.8017 42.16 28.2484 42.16C27.7017 42.16 27.2084 42.0667 26.7684 41.88C26.3351 41.6867 25.9684 41.4233 25.6684 41.09C25.3684 40.7567 25.1384 40.3667 24.9784 39.92C24.8184 39.4667 24.7384 38.98 24.7384 38.46Z" fill="white"/>
<path d="M39.175 38.22H40.395C40.575 38.22 40.7484 38.2067 40.915 38.18C41.0817 38.1533 41.2284 38.1033 41.355 38.03C41.4817 37.95 41.5817 37.84 41.655 37.7C41.735 37.56 41.775 37.3767 41.775 37.15C41.775 36.9233 41.735 36.74 41.655 36.6C41.5817 36.46 41.4817 36.3533 41.355 36.28C41.2284 36.2 41.0817 36.1467 40.915 36.12C40.7484 36.0933 40.575 36.08 40.395 36.08H39.175V38.22ZM37.605 34.86H40.825C41.2717 34.86 41.6517 34.9267 41.965 35.06C42.2784 35.1867 42.5317 35.3567 42.725 35.57C42.925 35.7833 43.0684 36.0267 43.155 36.3C43.2484 36.5733 43.295 36.8567 43.295 37.15C43.295 37.4367 43.2484 37.72 43.155 38C43.0684 38.2733 42.925 38.5167 42.725 38.73C42.5317 38.9433 42.2784 39.1167 41.965 39.25C41.6517 39.3767 41.2717 39.44 40.825 39.44H39.175V42H37.605V34.86Z" fill="white"/>
<path d="M19.7939 26.3C19.7939 27.2667 19.5239 27.9867 18.9839 28.46C18.4439 28.9267 17.6973 29.16 16.7439 29.16C15.7773 29.16 15.0273 28.9267 14.4939 28.46C13.9673 27.9933 13.7039 27.2733 13.7039 26.3V21.86H15.2739V26.3C15.2739 26.4933 15.2906 26.6833 15.3239 26.87C15.3573 27.0567 15.4273 27.2233 15.5339 27.37C15.6406 27.51 15.7873 27.6267 15.9739 27.72C16.1673 27.8067 16.4239 27.85 16.7439 27.85C17.3039 27.85 17.6906 27.7267 17.9039 27.48C18.1173 27.2267 18.2239 26.8333 18.2239 26.3V21.86H19.7939V26.3Z" fill="white"/>
<path d="M27.2629 26.63C27.2629 26.87 27.3063 27.0733 27.3929 27.24C27.4796 27.4067 27.5929 27.5433 27.7329 27.65C27.8796 27.75 28.0496 27.8267 28.2429 27.88C28.4363 27.9267 28.6363 27.95 28.8429 27.95C28.9829 27.95 29.1329 27.94 29.2929 27.92C29.4529 27.8933 29.6029 27.8467 29.7429 27.78C29.8829 27.7133 29.9996 27.6233 30.0929 27.51C30.1863 27.39 30.2329 27.24 30.2329 27.06C30.2329 26.8667 30.1696 26.71 30.0429 26.59C29.9229 26.47 29.7629 26.37 29.5629 26.29C29.3629 26.21 29.1363 26.14 28.8829 26.08C28.6296 26.02 28.3729 25.9533 28.1129 25.88C27.8463 25.8133 27.5863 25.7333 27.3329 25.64C27.0796 25.54 26.8529 25.4133 26.6529 25.26C26.4529 25.1067 26.2896 24.9167 26.1629 24.69C26.0429 24.4567 25.9829 24.1767 25.9829 23.85C25.9829 23.4833 26.0596 23.1667 26.2129 22.9C26.3729 22.6267 26.5796 22.4 26.8329 22.22C27.0863 22.04 27.3729 21.9067 27.6929 21.82C28.0129 21.7333 28.3329 21.69 28.6529 21.69C29.0263 21.69 29.3829 21.7333 29.7229 21.82C30.0696 21.9 30.3763 22.0333 30.6429 22.22C30.9096 22.4067 31.1196 22.6467 31.2729 22.94C31.4329 23.2267 31.5129 23.5767 31.5129 23.99H29.9929C29.9796 23.7767 29.9329 23.6 29.8529 23.46C29.7796 23.32 29.6796 23.21 29.5529 23.13C29.4263 23.05 29.2796 22.9933 29.1129 22.96C28.9529 22.9267 28.7763 22.91 28.5829 22.91C28.4563 22.91 28.3296 22.9233 28.2029 22.95C28.0763 22.9767 27.9596 23.0233 27.8529 23.09C27.7529 23.1567 27.6696 23.24 27.6029 23.34C27.5363 23.44 27.5029 23.5667 27.5029 23.72C27.5029 23.86 27.5296 23.9733 27.5829 24.06C27.6363 24.1467 27.7396 24.2267 27.8929 24.3C28.0529 24.3733 28.2696 24.4467 28.5429 24.52C28.8229 24.5933 29.1863 24.6867 29.6329 24.8C29.7663 24.8267 29.9496 24.8767 30.1829 24.95C30.4229 25.0167 30.6596 25.1267 30.8929 25.28C31.1263 25.4333 31.3263 25.64 31.4929 25.9C31.6663 26.1533 31.7529 26.48 31.7529 26.88C31.7529 27.2067 31.6896 27.51 31.5629 27.79C31.4363 28.07 31.2463 28.3133 30.9929 28.52C30.7463 28.72 30.4363 28.8767 30.0629 28.99C29.6963 29.1033 29.2696 29.16 28.7829 29.16C28.3896 29.16 28.0063 29.11 27.6329 29.01C27.2663 28.9167 26.9396 28.7667 26.6529 28.56C26.3729 28.3533 26.1496 28.09 25.9829 27.77C25.8163 27.45 25.7363 27.07 25.7429 26.63H27.2629Z" fill="white"/>
</svg>
