<svg width="30" height="31" viewBox="0 0 30 31" fill="none" xmlns="http://www.w3.org/2000/svg">
<path d="M18.4998 0C24.5749 0.000107203 29.4998 4.92493 29.4998 11C29.4998 17.0751 24.5749 21.9999 18.4998 22C16.5101 22 14.6453 21.4688 13.035 20.5449L4.2674 29.3135C3.29111 30.2898 1.70856 30.2897 0.732239 29.3135C-0.244072 28.3372 -0.244072 26.7546 0.732239 25.7783L9.37091 17.1387C8.18951 15.3853 7.49982 13.2733 7.49982 11C7.49982 4.92487 12.4247 0 18.4998 0ZM18.4998 5C15.1861 5 12.4998 7.68629 12.4998 11C12.4998 14.3137 15.1861 17 18.4998 17C21.8134 16.9999 24.4998 14.3136 24.4998 11C24.4998 7.68636 21.8134 5.00011 18.4998 5Z" fill="white"/>
</svg>
