<svg width="30" height="30" viewBox="0 0 30 30" fill="none" xmlns="http://www.w3.org/2000/svg">
<mask id="mask0_396_2145" style="mask-type:alpha" maskUnits="userSpaceOnUse" x="0" y="0" width="30" height="30">
<circle cx="15" cy="15" r="15" fill="#D9D9D9"/>
</mask>
<g mask="url(#mask0_396_2145)">
<g filter="url(#filter0_f_396_2145)">
<rect y="24" width="30" height="6" fill="#333366"/>
</g>
<g filter="url(#filter1_f_396_2145)">
<rect y="17.999" width="30" height="6" fill="#2272B5"/>
</g>
<g filter="url(#filter2_f_396_2145)">
<rect y="6" width="30" height="6" fill="#80BC00"/>
</g>
<g filter="url(#filter3_f_396_2145)">
<rect y="12.001" width="30" height="6" fill="#46AAD1"/>
</g>
<g filter="url(#filter4_f_396_2145)">
<rect width="30" height="6" fill="#EE3325"/>
</g>
</g>
<path d="M23.7398 7.19985C24.0431 7.09999 24.3777 7.14732 24.6385 7.32693C24.8992 7.50656 25.0542 7.79612 25.0542 8.10495V20.5683C25.0541 20.9774 24.7841 21.3411 24.3825 21.4734L18.2181 23.5035C18.0056 23.5735 17.7747 23.5719 17.5632 23.4992L11.9981 21.5849L6.52553 23.4973C6.22114 23.6037 5.88168 23.5605 5.61655 23.3814C5.35148 23.2023 5.19374 22.9098 5.19374 22.5978V10.3842L5.19697 10.3095C5.22668 9.94139 5.47465 9.61984 5.83765 9.48846L11.6458 7.38735C11.8566 7.31108 12.0885 7.30584 12.3026 7.37302L17.889 9.12592L23.7398 7.19985ZM18.8898 10.8184V21.2598L23.0681 19.8837V9.44236L18.8898 10.8184ZM12.9879 19.8937L16.9038 21.2405V10.829L12.9879 9.59996V19.8937ZM7.17978 11.047V21.2324L11.0019 19.8968V9.66412L7.17978 11.047Z" fill="white"/>
<defs>
<filter id="filter0_f_396_2145" x="-3" y="21" width="36" height="12" filterUnits="userSpaceOnUse" color-interpolation-filters="sRGB">
<feFlood flood-opacity="0" result="BackgroundImageFix"/>
<feBlend mode="normal" in="SourceGraphic" in2="BackgroundImageFix" result="shape"/>
<feGaussianBlur stdDeviation="1.5" result="effect1_foregroundBlur_396_2145"/>
</filter>
<filter id="filter1_f_396_2145" x="-3" y="14.999" width="36" height="12" filterUnits="userSpaceOnUse" color-interpolation-filters="sRGB">
<feFlood flood-opacity="0" result="BackgroundImageFix"/>
<feBlend mode="normal" in="SourceGraphic" in2="BackgroundImageFix" result="shape"/>
<feGaussianBlur stdDeviation="1.5" result="effect1_foregroundBlur_396_2145"/>
</filter>
<filter id="filter2_f_396_2145" x="-3" y="3" width="36" height="12" filterUnits="userSpaceOnUse" color-interpolation-filters="sRGB">
<feFlood flood-opacity="0" result="BackgroundImageFix"/>
<feBlend mode="normal" in="SourceGraphic" in2="BackgroundImageFix" result="shape"/>
<feGaussianBlur stdDeviation="1.5" result="effect1_foregroundBlur_396_2145"/>
</filter>
<filter id="filter3_f_396_2145" x="-3" y="9.00098" width="36" height="12" filterUnits="userSpaceOnUse" color-interpolation-filters="sRGB">
<feFlood flood-opacity="0" result="BackgroundImageFix"/>
<feBlend mode="normal" in="SourceGraphic" in2="BackgroundImageFix" result="shape"/>
<feGaussianBlur stdDeviation="1.5" result="effect1_foregroundBlur_396_2145"/>
</filter>
<filter id="filter4_f_396_2145" x="-3" y="-3" width="36" height="12" filterUnits="userSpaceOnUse" color-interpolation-filters="sRGB">
<feFlood flood-opacity="0" result="BackgroundImageFix"/>
<feBlend mode="normal" in="SourceGraphic" in2="BackgroundImageFix" result="shape"/>
<feGaussianBlur stdDeviation="1.5" result="effect1_foregroundBlur_396_2145"/>
</filter>
</defs>
</svg>
