<svg width="21" height="20" viewBox="0 0 21 20" fill="none" xmlns="http://www.w3.org/2000/svg">
<path d="M10.3919 0C11.0416 0 11.6177 0.418304 11.8186 1.03613L13.5813 6.46094H19.2844C19.9343 6.46094 20.5104 6.87909 20.7112 7.49707C20.912 8.11504 20.6919 8.79184 20.1663 9.17383L15.551 12.5264L17.3147 17.9512C17.5153 18.5691 17.2954 19.246 16.7698 19.6279C16.2441 20.0099 15.5319 20.0099 15.0061 19.6279L10.3919 16.2744L5.77859 19.6279C5.2529 20.0099 4.54063 20.0098 4.01492 19.6279C3.48927 19.246 3.26936 18.5691 3.46999 17.9512L5.23171 12.5264L0.618432 9.17383C0.0927262 8.79186 -0.127297 8.11509 0.0735098 7.49707C0.274365 6.87912 0.85048 6.46094 1.50027 6.46094H7.20339L8.96609 1.03613L9.00808 0.922852C9.23921 0.367904 9.7829 0.000157295 10.3919 0ZM8.29324 7.96094H1.50027L6.99538 11.9541L4.89675 18.4141L10.3919 14.4209L15.888 18.4141L13.7893 11.9541L19.2844 7.96094H12.4915L10.3919 1.5L8.29324 7.96094Z" fill="black"/>
</svg>
