<svg width="24" height="24" viewBox="0 0 24 24" fill="none" xmlns="http://www.w3.org/2000/svg">
<path d="M1.38054 8.82261L1.50207 8.7577C2.00533 8.52878 2.51595 8.32048 3.03782 8.11688L4.63986 7.50369C7.51796 6.39733 10.394 5.3025 13.2764 4.1981C15.9873 3.15962 18.6835 2.11715 21.3915 1.08517C21.8115 0.925306 22.1009 0.992097 22.3693 1.25228C22.5302 1.40833 22.5911 1.54407 22.6131 1.65763C22.6304 1.74722 22.6313 1.86631 22.5917 2.02292L22.5378 2.19279C22.0931 3.35874 21.6493 4.52569 21.2058 5.69172C20.7622 6.85802 20.3181 8.02423 19.8737 9.18928C19.1451 11.0999 18.4142 13.0087 17.6827 14.9186C16.7845 17.2633 15.889 19.6055 14.9799 21.9414C14.9637 21.983 14.9332 22.0437 14.8653 22.1499C14.8347 22.1977 14.768 22.2992 14.7023 22.4013C14.1146 22.8798 13.3272 22.6537 13.0948 21.8585L13.0941 21.8578C12.4173 19.5427 11.6594 17.1215 10.9838 14.8323L10.9831 14.8316C10.8139 14.2588 10.5281 13.7697 10.1089 13.3815C9.69551 12.9989 9.20103 12.7593 8.68155 12.606C7.50382 12.2586 6.3386 11.9038 5.17157 11.5461L1.64984 10.4716C1.37608 10.3891 1.23294 10.2812 1.15611 10.1906C1.10272 10.1276 1.05184 10.0382 1.02353 9.89777L1.0035 9.73963C0.975584 9.27176 1.11504 8.99056 1.38054 8.82261Z" stroke="white" stroke-width="2"/>
</svg>
