<svg width="55" height="91" viewBox="0 0 55 91" fill="none" xmlns="http://www.w3.org/2000/svg">
<path d="M31.35 86.2125H33.825V90.75H23.925V86.2125H25.9875V53.625H31.35V86.2125Z" fill="#ECECEC"/>
<path d="M30.525 87.0375H33V89.925H24.75V87.0375H26.8125V53.625H30.525V87.0375Z" fill="#D0D0D0"/>
<path d="M0 0.999999C0 0.447714 0.447715 0 1 0H54C54.5523 0 55 0.447715 55 1V54C55 54.5523 54.5523 55 54 55H0.999999C0.447714 55 0 54.5523 0 54V0.999999Z" fill="#202020"/>
<path d="M17.875 30.1891C8.55591 20.9979 16.1802 5.49136 29.246 6.97408C38.0029 7.96818 43.4951 17.0249 40.4792 25.209C37.072 34.4535 24.954 37.1715 17.875 30.1891ZM38.7154 25.5571C43.1577 15.9526 33.8626 5.68907 23.6991 8.95668C15.1626 11.7011 12.4257 22.502 18.673 28.9273C24.6777 35.1031 35.1295 33.3091 38.7154 25.5571ZM29.2211 16.372C31.0498 14.4022 34.4969 14.5972 35.6838 17.1328C36.4328 18.7326 36.1084 23.062 36.1084 25.0091C36.1085 25.2943 36.1905 25.5968 36.1108 25.917H32.632V19.4082C32.632 19.3207 32.4302 18.6895 32.3739 18.5851C31.8828 17.6935 30.5598 17.6976 29.9049 18.397C29.6341 18.6857 29.2912 19.4223 29.2912 19.8128V25.917H25.8125V19.4753C25.8122 19.3485 25.585 18.6997 25.508 18.5616C24.9841 17.6211 23.5621 17.714 22.9474 18.531C22.8035 18.7224 22.4696 19.4693 22.4693 19.6775V25.8829C22.469 26.0525 22.068 25.9161 21.9603 25.9134C21.0901 25.8905 19.9848 26.015 19.1582 25.9193C19.0586 25.9078 18.9828 25.9111 18.9227 25.8146V15.4289C18.9227 15.2441 19.4379 15.4054 19.5709 15.4007C20.3866 15.3744 21.2778 15.2292 22.0982 15.3243C22.1975 15.3357 22.2738 15.3316 22.3337 15.4278V16.8106L22.3325 16.8118C22.5924 16.7504 22.6156 16.4735 22.7821 16.2779C24.1299 14.6925 26.9793 14.6353 28.3695 16.2039C28.478 16.3259 28.7432 16.8022 28.7786 16.813C28.9607 16.8694 29.1024 16.4988 29.2211 16.372Z" fill="#ECECEC"/>
<path d="M50.2115 40.1421C50.7204 40.1421 51.1566 40.2178 51.5181 40.3716H51.5172C51.8764 40.5168 52.1691 40.7124 52.3931 40.9595L52.5543 41.1499C52.7027 41.3474 52.8141 41.5648 52.8892 41.8013C52.9964 42.1151 53.0503 42.4404 53.0504 42.7769C53.0504 43.106 52.9962 43.4314 52.8892 43.7524C52.7891 44.0679 52.6237 44.3493 52.3931 44.5952L52.3922 44.5942C52.1683 44.841 51.8769 45.0412 51.5181 45.1938H51.5172C51.1559 45.3399 50.7201 45.4126 50.2115 45.4126H48.399V48.3022H46.5269V40.1421H50.2115ZM48.399 43.9351H49.7261C49.9268 43.9351 50.1199 43.9198 50.3052 43.8901C50.4882 43.8609 50.6478 43.8063 50.7847 43.7271C50.9191 43.6418 51.0254 43.5246 51.1041 43.3745L51.105 43.3735C51.1896 43.2255 51.2339 43.0274 51.2339 42.7769C51.2339 42.5264 51.1896 42.3291 51.105 42.1812L51.1041 42.1792C51.0253 42.029 50.9188 41.916 50.7847 41.8384L50.7838 41.8374C50.6472 41.7511 50.4875 41.6927 50.3052 41.6636C50.1199 41.6339 49.9268 41.6187 49.7261 41.6187H48.399V43.9351Z" fill="white" stroke="white" stroke-width="0.1"/>
<path d="M42.0798 39.9502C42.7101 39.9502 43.2747 40.0598 43.7712 40.2812C44.2665 40.5022 44.6864 40.8079 45.03 41.1973C45.3732 41.5862 45.6364 42.0435 45.819 42.5684C46.0017 43.086 46.0925 43.6487 46.0925 44.2559C46.0925 44.8481 46.0017 45.4034 45.819 45.9209C45.6364 46.4308 45.3731 46.8765 45.03 47.2578C44.7294 47.5918 44.3704 47.8643 43.9538 48.0752L43.7712 48.1621C43.2748 48.3759 42.71 48.4824 42.0798 48.4824C41.4573 48.4824 40.8938 48.3766 40.3903 48.1631L40.3893 48.1621C39.8941 47.9412 39.4742 47.6396 39.1305 47.2578C38.7874 46.8765 38.5241 46.4308 38.3415 45.9209C38.1588 45.4034 38.068 44.8481 38.068 44.2559C38.068 43.6487 38.1588 43.086 38.3415 42.5684C38.5241 42.0435 38.7873 41.5862 39.1305 41.1973C39.4741 40.8079 39.894 40.5022 40.3893 40.2812L40.5807 40.2041C41.0347 40.0346 41.5345 39.9502 42.0798 39.9502ZM42.0798 41.54C41.6876 41.5401 41.3577 41.6177 41.0885 41.7705L41.0876 41.7715C40.8845 41.8813 40.7105 42.022 40.5651 42.1934L40.4284 42.376C40.259 42.6264 40.133 42.9143 40.0514 43.2402C39.9771 43.5674 39.9401 43.9059 39.9401 44.2559C39.9401 44.5902 39.9773 44.917 40.0514 45.2363L40.1208 45.4639C40.1984 45.6858 40.301 45.8908 40.4284 46.0791C40.597 46.3283 40.8167 46.5302 41.0885 46.6846H41.0876C41.357 46.8302 41.6873 46.9042 42.0798 46.9043C42.4722 46.9043 42.8026 46.83 43.0719 46.6846L43.2653 46.5596C43.4499 46.426 43.6056 46.2661 43.7321 46.0791C43.9016 45.8285 44.0234 45.5478 44.0973 45.2373L44.151 44.9961C44.1971 44.7536 44.2204 44.5069 44.2204 44.2559C44.2204 43.9061 44.1791 43.5673 44.0973 43.2402V43.2393C44.0418 42.995 43.9595 42.772 43.8503 42.5703L43.7321 42.376C43.5636 42.1195 43.3432 41.9181 43.0719 41.7715V41.7705C42.8027 41.6177 42.4721 41.54 42.0798 41.54Z" fill="white" stroke="white" stroke-width="0.1"/>
<path d="M38.2661 40.1421V41.7319H35.8501V48.3022H33.978V41.7319H31.562V40.1421H38.2661Z" fill="white" stroke="white" stroke-width="0.1"/>
<path d="M28.367 39.9502C28.7917 39.9502 29.1982 39.999 29.5858 40.0977C29.9828 40.1893 30.3356 40.3429 30.6424 40.5576C30.9496 40.7727 31.1913 41.0493 31.368 41.3867C31.5537 41.7195 31.6463 42.1237 31.6463 42.5967V42.6465H29.8328L29.8299 42.5996C29.8152 42.364 29.764 42.1721 29.6785 42.0225L29.6776 42.0215C29.5986 41.8708 29.4914 41.7533 29.3563 41.668C29.2534 41.603 29.1381 41.5515 29.0096 41.5146L28.8768 41.4824C28.7 41.4456 28.5033 41.4268 28.2879 41.4268C28.1487 41.4268 28.0094 41.4423 27.8699 41.4717C27.7326 41.5006 27.6063 41.551 27.491 41.623C27.3841 41.6945 27.2948 41.7836 27.2234 41.8906C27.1551 41.9933 27.119 42.1262 27.119 42.292C27.119 42.4439 27.1481 42.562 27.202 42.6494C27.2548 42.7352 27.3615 42.8203 27.5311 42.9014H27.5301C27.707 42.9825 27.9486 43.0641 28.2557 43.1465C28.5716 43.2292 28.982 43.334 29.4861 43.4619H29.4852C29.6377 43.4925 29.8453 43.5496 30.1072 43.6318C30.3837 43.7086 30.6564 43.8351 30.9236 44.0107C31.1931 44.1878 31.4227 44.4265 31.6141 44.7246H31.6151C31.8176 45.0209 31.9167 45.4002 31.9168 45.8584C31.9168 46.2336 31.844 46.5834 31.6981 46.9062C31.5699 47.1895 31.3858 47.4406 31.1463 47.6582L31.0408 47.749C30.7564 47.9797 30.3997 48.1597 29.9734 48.2891V48.2881C29.5538 48.4178 29.0673 48.4824 28.5145 48.4824C28.0662 48.4824 27.6287 48.4256 27.2029 48.3115V48.3105C26.8887 48.2305 26.5993 48.1151 26.3358 47.9619L26.0799 47.7959C25.7575 47.5579 25.4999 47.2545 25.3084 46.8867C25.1158 46.5168 25.0245 46.0792 25.032 45.5762L25.033 45.5264H26.8484V45.5762C26.8484 45.8412 26.8959 46.0629 26.9891 46.2422C27.0833 46.4234 27.2064 46.5711 27.3572 46.6865L27.4822 46.7637C27.6125 46.8364 27.7575 46.8952 27.9178 46.9395H27.9168C28.1309 46.9911 28.3526 47.0166 28.5818 47.0166C28.737 47.0166 28.9037 47.0056 29.0818 46.9834L29.2117 46.957C29.3394 46.9268 29.4609 46.8848 29.576 46.8301C29.7278 46.7578 29.8535 46.66 29.9539 46.5381C30.0507 46.4132 30.1013 46.256 30.1014 46.0625C30.1014 45.8563 30.0341 45.6923 29.9022 45.5674L29.9012 45.5664C29.7716 45.4369 29.5968 45.3277 29.3758 45.2393C29.1528 45.1501 28.899 45.0721 28.6151 45.0049C28.3284 44.937 28.038 44.8613 27.744 44.7783V44.7773C27.4419 44.7018 27.1472 44.6116 26.8602 44.5059H26.8592C26.5692 44.3914 26.3087 44.2455 26.0789 44.0693C25.8477 43.892 25.6586 43.6726 25.5125 43.4111L25.5115 43.4092C25.3718 43.1373 25.3035 42.8131 25.3035 42.4385C25.3035 42.0175 25.3909 41.6508 25.5692 41.3408H25.5701C25.7543 41.0263 25.9922 40.765 26.284 40.5576C26.575 40.3509 26.9039 40.1979 27.2703 40.0986C27.6356 39.9997 28.0013 39.9502 28.367 39.9502Z" fill="white" stroke="white" stroke-width="0.1"/>
<path d="M23.9241 40.1421L23.9105 40.2026L23.6517 41.4214L23.6429 41.4614H21.0804L19.6663 48.2622L19.6585 48.3022H18.1449L18.1575 48.2417L19.5667 41.4614H16.9144L16.9271 41.4009L17.1751 40.1821L17.1829 40.1421H23.9241Z" fill="white" stroke="white" stroke-width="0.1"/>
<path d="M11.6812 43.811H13.6852C14.289 43.811 14.7389 43.6874 15.0426 43.4487L15.151 43.3521C15.3886 43.1148 15.5094 42.7969 15.5094 42.3931C15.5094 42.181 15.4685 42.0143 15.3922 41.8892L15.3902 41.8862C15.3193 41.7515 15.2209 41.6489 15.0943 41.5786C14.9651 41.5068 14.8166 41.4598 14.649 41.438H14.6471C14.477 41.4084 14.2993 41.3931 14.1139 41.3931H12.1793L11.6812 43.811ZM15.9254 47.5864C15.9254 47.6958 15.9324 47.8051 15.9469 47.9146L15.9928 48.0737C16.0125 48.1256 16.0363 48.1768 16.065 48.2271L16.108 48.3022H14.5074L14.4957 48.269C14.4571 48.1611 14.4302 48.0559 14.4146 47.9546L14.4137 47.9507C14.4061 47.8516 14.4029 47.7451 14.4029 47.6313C14.4029 47.3278 14.4257 47.0313 14.4713 46.7427C14.516 46.452 14.5377 46.1612 14.5377 45.8706C14.5377 45.6428 14.4938 45.4732 14.4117 45.3569L14.4107 45.355C14.3338 45.2363 14.229 45.1529 14.0963 45.104L14.0943 45.103C13.9578 45.0456 13.802 45.0127 13.6266 45.0054H13.6246C13.4455 44.9904 13.2625 44.9829 13.0758 44.9829H11.4332L10.7535 48.2622L10.7457 48.3022H9.20956L9.22226 48.2417L10.8932 40.1821L10.901 40.1421H14.4303C14.6058 40.1421 14.8371 40.1569 15.1236 40.187C15.4159 40.2178 15.7002 40.3029 15.9762 40.4409L16.0816 40.4966C16.3225 40.6344 16.5299 40.8283 16.7047 41.0767H16.7057C16.9174 41.3593 17.0201 41.7515 17.0201 42.2466C17.0201 42.8943 16.856 43.4078 16.5221 43.7808C16.2132 44.1184 15.7943 44.3425 15.2711 44.4585C15.5573 44.5884 15.7563 44.7728 15.8629 45.0132H15.8639C15.9881 45.2696 16.0494 45.5711 16.0494 45.9155C16.0494 46.1965 16.0266 46.4774 15.981 46.7583C15.9364 47.0336 15.918 47.3092 15.9254 47.5845V47.5864Z" fill="white" stroke="white" stroke-width="0.1"/>
<path d="M7.14746 40.1421C7.68512 40.1421 8.11482 40.2137 8.43262 40.3608L8.65918 40.4751C8.87032 40.5944 9.03793 40.7301 9.16113 40.8823L9.27734 41.0356C9.3821 41.1914 9.45296 41.3543 9.48828 41.5249C9.53374 41.7446 9.55659 41.929 9.55664 42.0767C9.55664 42.3227 9.51849 42.5581 9.44141 42.7817C9.37188 42.9977 9.26787 43.195 9.12891 43.3726C8.98939 43.5508 8.81822 43.698 8.61719 43.814L8.61621 43.813C8.46044 43.9062 8.29034 43.974 8.10547 44.0171C8.45243 44.1489 8.72101 44.3439 8.90723 44.605C9.11596 44.8976 9.21875 45.2682 9.21875 45.7124C9.21871 45.9291 9.17622 46.186 9.09277 46.4819H9.0918C9.00681 46.7755 8.84933 47.0603 8.62012 47.3354C8.39604 47.6059 8.08041 47.8355 7.67676 48.0259V48.0269C7.27665 48.2115 6.76403 48.3022 6.14258 48.3022H1.93848L1.95117 48.2417L3.62207 40.1821L3.62988 40.1421H7.14746ZM3.70996 47.0503H5.66895C5.78844 47.0503 5.95697 47.0471 6.1748 47.0396C6.38836 47.0322 6.60622 46.9948 6.82812 46.9282C7.04583 46.8555 7.23879 46.7363 7.40625 46.5688V46.5679C7.57559 46.4056 7.67762 46.1663 7.70703 45.8433L7.70996 45.6851C7.70812 45.6265 7.7037 45.5621 7.69629 45.4917V45.4888C7.68933 45.3571 7.6408 45.227 7.54785 45.0981L7.5459 45.0962C7.46241 44.9711 7.32439 44.8636 7.12695 44.7759L7.125 44.7749C6.93942 44.6822 6.67023 44.6333 6.3125 44.6333H4.21875L3.70996 47.0503ZM4.44336 43.5171H6.49316C6.8355 43.5171 7.1065 43.4728 7.30859 43.3862C7.51462 43.2979 7.66977 43.1925 7.77637 43.0718C7.88496 42.9412 7.95582 42.8086 7.99121 42.6743L8.03223 42.4702C8.04128 42.4086 8.04588 42.353 8.0459 42.3032C8.0459 42.2641 8.04351 42.2215 8.03809 42.1763L8.0127 42.0308C7.99197 41.9271 7.94409 41.8289 7.86621 41.7368L7.86426 41.7358C7.78837 41.6393 7.67269 41.5572 7.5127 41.4917C7.35572 41.4275 7.13725 41.3931 6.85449 41.3931H4.88574L4.44336 43.5171Z" fill="white" stroke="white" stroke-width="0.1"/>
</svg>
